<?xml version="1.0" encoding="iso-8859-1"?>
<!-- Generator: Adobe Illustrator 19.0.0, SVG Export Plug-In . SVG Version: 6.00 Build 0)  -->
<svg xmlns="http://www.w3.org/2000/svg" xmlns:xlink="http://www.w3.org/1999/xlink" version="1.1" id="Layer_1" x="0px" y="0px" viewBox="0 0 512 512" style="enable-background:new 0 0 512 512;" xml:space="preserve" width="512px" height="512px">
<g>
	<g>
		<path d="M361.801,177.594l66.841-89.629c2.669-3.579,3.091-8.359,1.088-12.351s-6.086-6.512-10.553-6.512H131.395V54.049    c9.736-4.484,16.515-14.328,16.515-25.731C147.909,12.704,135.206,0,119.591,0S91.272,12.704,91.272,28.318    c0,11.402,6.777,21.245,16.511,25.73v434.342H92.822c-6.519,0-11.805,5.285-11.805,11.805S86.303,512,92.822,512h53.537    c6.519,0,11.805-5.285,11.805-11.805s-5.286-11.805-11.805-11.805h-14.965V285.645h287.354c4.464,0,8.546-2.518,10.549-6.508    c2.003-3.989,1.585-8.768-1.081-12.348L361.801,177.594z M119.591,35.387c-3.898,0-7.068-3.171-7.068-7.069    c-0.001-3.897,3.17-7.068,7.068-7.068s7.069,3.171,7.069,7.068C126.66,32.216,123.488,35.387,119.591,35.387z M131.396,262.035    v-0.001v-39.21h37.623c6.52,0,11.805-5.285,11.805-11.805s-5.285-11.805-11.805-11.805h-37.623v-43.676h58.871    c6.52,0,11.805-5.285,11.805-11.805c0-6.52-5.285-11.805-11.805-11.805h-58.871V92.714h264.251l-58.033,77.819    c-3.12,4.184-3.122,9.921-0.005,14.109l57.63,77.394H131.396z" fill="#868686"/>
	</g>
</g>
<g>
</g>
<g>
</g>
<g>
</g>
<g>
</g>
<g>
</g>
<g>
</g>
<g>
</g>
<g>
</g>
<g>
</g>
<g>
</g>
<g>
</g>
<g>
</g>
<g>
</g>
<g>
</g>
<g>
</g>
</svg>
