<?xml version="1.0"?>
<svg xmlns="http://www.w3.org/2000/svg" height="512px" viewBox="0 0 512 512" width="512px"><g><g fill="#ff7761"><path d="m256 0c-141.386719 0-256 114.613281-256 256s114.613281 256 256 256 256-114.613281 256-256c-.167969-141.316406-114.683594-255.832031-256-256zm169.089844 402.464844-123.9375-123.9375-22.625 22.625 123.9375 123.9375c-88.648438 77.15625-221.894532 72.546875-305-10.554688-83.101563-83.105468-87.710938-216.351562-10.554688-305l123.730469 123.730469 22.625-22.625-123.730469-123.730469c88.648438-77.15625 221.894532-72.546875 305 10.554688 83.101563 83.105468 87.710938 216.351562 10.554688 305zm0 0" data-original="#FF7761" class="active-path" data-old_color="#FF7761" fill="#868686"/><path d="m233.277344 255.902344 22.625-22.625 22.628906 22.625-22.628906 22.628906zm0 0" data-original="#FF7761" class="active-path" data-old_color="#FF7761" fill="#868686"/></g></g> </svg>
