<?xml version="1.0" encoding="iso-8859-1"?>
<!-- Generator: Adobe Illustrator 19.0.0, SVG Export Plug-In . SVG Version: 6.00 Build 0)  -->
<svg xmlns="http://www.w3.org/2000/svg" xmlns:xlink="http://www.w3.org/1999/xlink" version="1.1" id="Capa_1" x="0px" y="0px" viewBox="0 0 512 512" style="enable-background:new 0 0 512 512;" xml:space="preserve" width="512px" height="512px">
<g>
	<g>
		<g>
			<path d="M486.4,0H25.6C11.468,0.015,0.015,11.468,0,25.6v460.8c0.015,14.132,11.468,25.585,25.6,25.6h460.8     c14.132-0.015,25.585-11.468,25.6-25.6V25.6C511.985,11.468,500.532,0.015,486.4,0z M494.933,486.4     c-0.006,4.71-3.823,8.527-8.533,8.533H25.6c-4.71-0.006-8.527-3.823-8.533-8.533V25.6c0.006-4.71,3.823-8.527,8.533-8.533h460.8     c4.71,0.006,8.527,3.823,8.533,8.533V486.4z" fill="#868686"/>
			<path d="M307.2,392.533H204.8c-4.713,0-8.533,3.821-8.533,8.533s3.82,8.533,8.533,8.533h102.4c4.713,0,8.533-3.82,8.533-8.533     S311.913,392.533,307.2,392.533z" fill="#868686"/>
			<path d="M51.2,295.821c4.713,0,8.533-3.82,8.533-8.533v-62.579c0-4.713-3.82-8.533-8.533-8.533s-8.533,3.821-8.533,8.533v62.579     C42.667,292,46.487,295.821,51.2,295.821z" fill="#868686"/>
			<path d="M204.8,119.467h102.4c4.713,0,8.533-3.82,8.533-8.533s-3.82-8.533-8.533-8.533H204.8c-4.713,0-8.533,3.82-8.533,8.533     S200.087,119.467,204.8,119.467z" fill="#868686"/>
			<path d="M460.8,216.179c-4.713,0-8.533,3.82-8.533,8.533v62.579c0,4.713,3.821,8.533,8.533,8.533s8.533-3.82,8.533-8.533v-62.579     C469.333,220,465.513,216.179,460.8,216.179z" fill="#868686"/>
			<path d="M468.818,108.38c-0.176-0.547-0.41-1.073-0.696-1.571c-0.104-0.276-0.224-0.546-0.359-0.809     c-0.141-0.198-0.356-0.297-0.51-0.48c-1.474-1.69-3.536-2.756-5.767-2.981c-0.238-0.02-0.442-0.139-0.685-0.139h-51.2     c-4.713,0-8.533,3.82-8.533,8.533s3.82,8.533,8.533,8.533h24.39L256,245.543L78.01,119.467h24.39c4.713,0,8.533-3.82,8.533-8.533     s-3.82-8.533-8.533-8.533H51.2c-0.243,0-0.447,0.119-0.685,0.139c-1.104,0.125-2.18,0.43-3.185,0.903     c-0.967,0.547-1.838,1.249-2.58,2.077c-0.155,0.183-0.371,0.283-0.512,0.482c-0.135,0.263-0.254,0.533-0.358,0.809     c-0.58,0.997-0.933,2.11-1.037,3.259c-0.075,0.285-0.133,0.574-0.175,0.866v51.2c0,4.713,3.82,8.533,8.533,8.533     s8.533-3.82,8.533-8.533v-34.698L241.237,256L59.733,384.565v-34.698c0-4.713-3.82-8.533-8.533-8.533s-8.533,3.82-8.533,8.533     v51.2c0.042,0.292,0.101,0.581,0.175,0.866c0.104,1.149,0.457,2.261,1.037,3.259c0.104,0.276,0.224,0.546,0.358,0.809     c0.119,0.169,0.317,0.228,0.446,0.385c0.587,0.705,1.286,1.308,2.069,1.785c0.27,0.208,0.553,0.398,0.846,0.571     c1.122,0.551,2.352,0.845,3.602,0.859h51.2c4.713,0,8.533-3.82,8.533-8.533s-3.82-8.533-8.533-8.533H78.01L256,266.457     l177.99,126.077H409.6c-4.713,0-8.533,3.821-8.533,8.533s3.82,8.533,8.533,8.533h51.2c1.249-0.015,2.48-0.308,3.601-0.859     c0.294-0.173,0.576-0.363,0.846-0.571c0.783-0.477,1.482-1.08,2.069-1.785c0.129-0.157,0.327-0.216,0.446-0.385     c0.135-0.263,0.254-0.533,0.359-0.809c0.579-0.998,0.933-2.11,1.037-3.259c0.074-0.285,0.133-0.574,0.175-0.866v-51.2     c0-4.713-3.82-8.533-8.533-8.533s-8.533,3.82-8.533,8.533v34.698L270.763,256l181.504-128.565v34.698     c0,4.713,3.821,8.533,8.533,8.533s8.533-3.82,8.533-8.533v-51.2c-0.042-0.292-0.101-0.581-0.175-0.866     C469.104,109.495,468.99,108.929,468.818,108.38z" fill="#868686"/>
		</g>
	</g>
</g>
<g>
</g>
<g>
</g>
<g>
</g>
<g>
</g>
<g>
</g>
<g>
</g>
<g>
</g>
<g>
</g>
<g>
</g>
<g>
</g>
<g>
</g>
<g>
</g>
<g>
</g>
<g>
</g>
<g>
</g>
</svg>
