<?xml version="1.0" encoding="iso-8859-1"?>
<!-- Generator: Adobe Illustrator 19.0.0, SVG Export Plug-In . SVG Version: 6.00 Build 0)  -->
<svg xmlns="http://www.w3.org/2000/svg" xmlns:xlink="http://www.w3.org/1999/xlink" version="1.1" id="Layer_1" x="0px" y="0px" viewBox="0 0 432.119 432.119" style="enable-background:new 0 0 432.119 432.119;" xml:space="preserve" width="512px" height="512px">
<g>
	<g>
		<g>
			<path d="M378.392,329.315l-39.598-39.598c-2.929-2.929-7.678-2.929-10.606,0c-2.929,2.929-2.929,7.678,0,10.606l26.795,26.795     H248.638c-4.142,0-7.5,3.358-7.5,7.5c0,4.142,3.358,7.5,7.5,7.5h106.344l-26.795,26.795c-2.929,2.929-2.929,7.678,0,10.606     c1.464,1.464,3.384,2.197,5.303,2.197s3.839-0.732,5.303-2.197l39.598-39.598C381.321,336.993,381.321,332.244,378.392,329.315z" fill="#b0b0b0"/>
			<path d="M184.007,209.972c23.96,0,47.357-14.538,65.881-40.936c16.347-23.296,26.106-52.099,26.106-77.048     C275.995,41.266,234.729,0,184.007,0S92.019,41.266,92.019,91.988c0,24.949,9.759,53.752,26.107,77.048     C136.65,195.434,160.047,209.972,184.007,209.972z M184.007,15c42.451,0,76.988,34.537,76.988,76.988     c0,21.655-8.96,47.876-23.385,68.432c-15.408,21.958-34.946,34.552-53.603,34.552c-18.657,0-38.194-12.594-53.603-34.552     c-14.424-20.556-23.385-46.778-23.385-68.432C107.019,49.537,141.556,15,184.007,15z" fill="#b0b0b0"/>
			<path d="M222.691,391.718c-0.079-0.186-0.06-0.139-0.026-0.054c-0.379-0.879-0.915-1.707-1.604-2.376     c-2.816-2.897-7.785-2.9-10.6,0c-2.899,2.814-2.895,7.785,0,10.6c2.491,2.562,6.674,2.889,9.582,0.854     c2.863-2.003,3.937-5.752,2.658-8.99C222.741,391.849,222.771,391.919,222.691,391.718z" fill="#b0b0b0"/>
			<path d="M310.863,237.118c-0.728,0-1.453,0.012-2.176,0.028c-15.062-18.626-34.3-33.831-55.87-44.099     c-2.863-1.363-6.274-0.777-8.52,1.462c-18.07,18.023-38.919,27.55-60.293,27.55c-21.377,0-42.222-9.526-60.282-27.549     c-2.247-2.241-5.659-2.827-8.522-1.462c-26.963,12.838-49.783,32.917-65.992,58.067c-16.652,25.836-25.454,55.811-25.454,86.685     v0.13c0,2.116,0.894,4.134,2.461,5.556c43.279,39.249,99.316,60.864,157.789,60.864c3.088,0,6.209-0.061,9.277-0.18     c4.139-0.161,7.364-3.646,7.203-7.785c-0.161-4.139-3.655-7.366-7.785-7.203c-2.874,0.111-5.799,0.168-8.695,0.168     c-53.621,0-105.056-19.418-145.215-54.746c0.583-26.855,8.515-52.846,23.027-75.363c13.766-21.359,32.788-38.684,55.228-50.357     c20.046,18.456,43.095,28.175,66.961,28.175c23.862,0,46.914-9.72,66.968-28.175c14.824,7.722,28.305,18.052,39.688,30.346     c-44.099,9.33-77.296,48.553-77.296,95.389c0,53.762,43.738,97.5,97.5,97.5c53.762,0,97.5-43.738,97.5-97.5     C408.365,280.857,364.625,237.118,310.863,237.118z M310.863,417.118c-45.491,0-82.5-37.009-82.5-82.5     c0-45.491,37.009-82.5,82.5-82.5c45.491,0,82.5,37.009,82.5,82.5C393.363,380.109,356.354,417.118,310.863,417.118z" fill="#b0b0b0"/>
		</g>
	</g>
</g>
<g>
</g>
<g>
</g>
<g>
</g>
<g>
</g>
<g>
</g>
<g>
</g>
<g>
</g>
<g>
</g>
<g>
</g>
<g>
</g>
<g>
</g>
<g>
</g>
<g>
</g>
<g>
</g>
<g>
</g>
</svg>
