<?xml version="1.0"?>
<svg xmlns="http://www.w3.org/2000/svg" xmlns:xlink="http://www.w3.org/1999/xlink" version="1.1" id="Layer_1" x="0px" y="0px" viewBox="0 0 512.001 512.001" style="enable-background:new 0 0 512.001 512.001;" xml:space="preserve" width="512px" height="512px"><g transform="matrix(-1, 1.22465e-16, -1.22465e-16, -1, 512.001, 512.001)"><g>
	<g>
		<path d="M505.651,243.741l-54.782-38.622c-9.916-6.99-23.644,0.116-23.644,12.26v77.242c0,12.194,13.757,19.227,23.643,12.26    l54.782-38.621C514.129,262.282,514.106,249.704,505.651,243.741z" data-original="#000000" class="active-path" data-old_color="#b0b0b0" fill="#b0b0b0"/>
	</g>
</g><g>
	<g>
		<path d="M430.46,352.315c-7.169-4.146-16.346-1.698-20.495,5.474c-35.236,60.915-101.1,101.807-176.367,101.807    C121.334,459.597,30,368.263,30,256.001S121.334,52.404,233.597,52.404c75.317,0,141.153,40.932,176.366,101.806    c4.148,7.172,13.327,9.619,20.495,5.474c7.171-4.148,9.621-13.324,5.474-20.495C395.408,69.133,319.721,22.404,233.597,22.404    C104.487,22.404,0,126.88,0,256.001c0,129.11,104.476,233.596,233.597,233.596c86.161,0,161.829-46.762,202.337-116.787    C440.081,365.639,437.631,356.464,430.46,352.315z" data-original="#000000" class="active-path" data-old_color="#b0b0b0" fill="#b0b0b0"/>
	</g>
</g><g>
	<g>
		<path d="M164.192,241.001c-8.284,0-15,6.715-15,15c0,8.284,6.716,15,15,15h233.031v-30H164.192z" data-original="#000000" class="active-path" data-old_color="#b0b0b0" fill="#b0b0b0"/>
	</g>
</g></g> </svg>
