<?xml version="1.0" encoding="iso-8859-1"?>
<!-- Generator: Adobe Illustrator 18.0.0, SVG Export Plug-In . SVG Version: 6.00 Build 0)  -->
<!DOCTYPE svg PUBLIC "-//W3C//DTD SVG 1.1//EN" "http://www.w3.org/Graphics/SVG/1.1/DTD/svg11.dtd">
<svg xmlns="http://www.w3.org/2000/svg" xmlns:xlink="http://www.w3.org/1999/xlink" version="1.1" id="Capa_1" x="0px" y="0px" viewBox="0 0 60 60" style="enable-background:new 0 0 60 60;" xml:space="preserve" width="512px" height="512px">
<g>
	<path d="M54,2H6C2.748,2,0,4.748,0,8v33c0,3.252,2.748,6,6,6h8v10c0,0.413,0.254,0.784,0.639,0.933C14.757,57.979,14.879,58,15,58   c0.276,0,0.547-0.114,0.74-0.327L25.442,47H54c3.252,0,6-2.748,6-6V8C60,4.748,57.252,2,54,2z M58,41c0,2.168-1.832,4-4,4H25   c-0.282,0-0.55,0.119-0.74,0.327L16,54.413V46c0-0.553-0.448-1-1-1H6c-2.168,0-4-1.832-4-4V8c0-2.168,1.832-4,4-4h48   c2.168,0,4,1.832,4,4V41z" fill="#b0b0b0"/>
	<path d="M50.561,12.172c-0.422-0.286-0.989-0.208-1.32,0.178L37.839,25.65L20.585,13.189c-0.237-0.171-0.538-0.23-0.824-0.16   c-0.285,0.069-0.525,0.261-0.656,0.523l-10,20C8.882,34,9.023,34.543,9.435,34.825c0.411,0.28,0.969,0.216,1.305-0.152   l9.399-10.339l17.276,12.477C37.586,36.935,37.792,37,38,37c0.077,0,0.154-0.009,0.23-0.026c0.283-0.067,0.522-0.254,0.657-0.511   l12-23C51.122,13.012,50.981,12.456,50.561,12.172z M37.648,34.513L20.585,22.189C20.409,22.063,20.204,22,20,22   c-0.273,0-0.544,0.111-0.74,0.327l-5.124,5.637L20.368,15.5l17.046,12.311c0.422,0.307,1.007,0.236,1.345-0.16l6.31-7.36   L37.648,34.513z" fill="#b0b0b0"/>
</g>
<g>
</g>
<g>
</g>
<g>
</g>
<g>
</g>
<g>
</g>
<g>
</g>
<g>
</g>
<g>
</g>
<g>
</g>
<g>
</g>
<g>
</g>
<g>
</g>
<g>
</g>
<g>
</g>
<g>
</g>
</svg>
