<?xml version="1.0" encoding="iso-8859-1"?>
<!-- Generator: Adobe Illustrator 19.0.0, SVG Export Plug-In . SVG Version: 6.00 Build 0)  -->
<svg xmlns="http://www.w3.org/2000/svg" xmlns:xlink="http://www.w3.org/1999/xlink" version="1.1" id="Capa_1" x="0px" y="0px" viewBox="0 0 512.003 512.003" style="enable-background:new 0 0 512.003 512.003;" xml:space="preserve" width="512px" height="512px">
<g>
	<g>
		<path d="M498.842,76.8c17.546-17.547,17.546-46.095,0.001-63.641s-46.094-17.546-63.639,0c-5.225,5.225-8.88,11.428-10.994,18.022    C372.134,1.977,306.308,6.67,258.53,45.764L109.494,171.1c-1.433-1.082-7.484-3.37-8.792-4.047    c-29.132-15.081-64.298-9.619-87.509,13.592c-17.587,17.588-17.59,46.052,0,63.64l75.305,75.305    c-19.148,28.838-16.342,68.512,9.548,94.401c25.869,25.869,65.541,28.711,94.401,9.548l75.305,75.306    c17.545,17.544,46.093,17.545,63.639,0c23.212-23.211,28.674-58.379,13.591-87.511c-0.676-1.305-2.964-7.358-4.046-8.791    L466.284,253.42c39.33-48.07,43.512-113.96,14.537-165.626C487.415,85.681,493.618,82.025,498.842,76.8z M119.259,392.775    c-14.028-14.029-16.699-34.727-8.801-51.228l60.029,60.029C154.048,409.445,133.336,406.852,119.259,392.775z M310.178,477.628    c-5.849,5.849-15.364,5.848-21.213,0L34.406,223.071c-5.863-5.864-5.863-15.35,0-21.213c8.685-8.685,20.154-13.229,31.796-13.229    c7.031,0,14.127,1.659,20.705,5.065c1.76,0.912,11.206,8.232,11.206,8.232c0.007,0.007,0.013,0.013,0.02,0.02L310.089,413.9    c0.007,0.007,0.014,0.014,0.022,0.021c0,0,7.32,9.446,8.231,11.204C327.389,442.599,324.107,463.698,310.178,477.628z     M443.11,234.366L319.726,381.11L130.924,192.308L277.582,68.938c46.958-38.421,114.72-35.04,157.622,7.861    C478.105,119.701,481.485,187.464,443.11,234.366z M456.417,55.586c-5.863-5.864-5.863-15.35,0-21.213    c5.863-5.863,15.35-5.863,21.213,0c5.863,5.863,5.862,15.349,0,21.213C471.768,61.448,462.28,61.448,456.417,55.586z" fill="#b0b0b0"/>
	</g>
</g>
<g>
	<g>
		<path d="M413.989,98.011c-5.856-5.857-15.354-5.856-21.212,0c-5.858,5.858-5.858,15.355,0,21.213    c21.013,21.014,22.667,54.201,3.844,77.199l-24.673,30.159c-5.245,6.412-4.3,15.862,2.112,21.108    c6.413,5.246,15.861,4.3,21.108-2.112l24.67-30.157C448.463,180.446,445.949,129.972,413.989,98.011z" fill="#b0b0b0"/>
	</g>
</g>
<g>
</g>
<g>
</g>
<g>
</g>
<g>
</g>
<g>
</g>
<g>
</g>
<g>
</g>
<g>
</g>
<g>
</g>
<g>
</g>
<g>
</g>
<g>
</g>
<g>
</g>
<g>
</g>
<g>
</g>
</svg>
