<?xml version="1.0" encoding="iso-8859-1"?>
<!-- Generator: Adobe Illustrator 17.1.0, SVG Export Plug-In . SVG Version: 6.00 Build 0)  -->
<!DOCTYPE svg PUBLIC "-//W3C//DTD SVG 1.1//EN" "http://www.w3.org/Graphics/SVG/1.1/DTD/svg11.dtd">
<svg xmlns="http://www.w3.org/2000/svg" xmlns:xlink="http://www.w3.org/1999/xlink" version="1.1" id="Capa_1" x="0px" y="0px" viewBox="0 0 453.487 453.487" style="enable-background:new 0 0 453.487 453.487;" xml:space="preserve" width="512px" height="512px">
<g>
	<path d="M390.523,159.76l-24.017-31.377l5.13-39.185c0.588-4.485-1.91-8.807-6.09-10.537l-36.51-15.116l-15.115-36.51   c-1.729-4.18-6.047-6.675-10.537-6.09l-39.186,5.13L232.822,2.059c-3.588-2.745-8.568-2.745-12.156,0l-31.377,24.017l-39.185-5.13   c-4.484-0.586-8.807,1.91-10.537,6.09l-15.116,36.51l-36.51,15.115c-4.18,1.731-6.678,6.052-6.09,10.538l5.13,39.186L62.964,159.76   c-2.746,3.587-2.746,8.569,0,12.156l24.017,31.377l-5.13,39.185c-0.588,4.485,1.91,8.807,6.09,10.537l36.51,15.115l15.115,36.511   c1.339,3.237,4.232,5.459,7.554,6.026v132.819c0,3.647,1.985,7.005,5.182,8.763c3.194,1.757,7.095,1.635,10.175-0.318   l64.268-40.764l64.268,40.764c1.632,1.035,3.492,1.556,5.356,1.556c1.656,0,3.315-0.411,4.818-1.237   c3.196-1.758,5.182-5.116,5.182-8.763V310.666c3.316-0.57,6.214-2.79,7.553-6.024l15.116-36.51l36.51-15.115   c4.18-1.731,6.678-6.052,6.09-10.538l-5.13-39.186l24.017-31.377C393.269,168.33,393.269,163.347,390.523,159.76z M232.1,390.882   c-3.27-2.074-7.443-2.074-10.713,0l-54.268,34.421V308.504l22.169-2.902l31.377,24.017c1.794,1.373,3.936,2.059,6.078,2.059   s4.284-0.687,6.078-2.059l31.377-24.017l22.169,2.903v116.798L232.1,390.882z M348.115,194.418   c-1.608,2.101-2.318,4.753-1.975,7.376l4.67,35.677l-33.253,13.767c-2.451,1.015-4.399,2.962-5.414,5.414l-13.768,33.253   l-35.677-4.671c-2.622-0.342-5.275,0.367-7.376,1.975l-28.579,21.875l-28.579-21.875c-1.754-1.343-3.893-2.059-6.078-2.059   c-0.432,0-0.865,0.028-1.298,0.084l-35.678,4.671l-13.767-33.254c-1.015-2.452-2.963-4.399-5.414-5.415l-33.253-13.767l4.67-35.676   c0.344-2.623-0.366-5.275-1.975-7.376l-21.875-28.58l21.875-28.579c1.608-2.101,2.318-4.753,1.975-7.376l-4.67-35.677L135.93,80.44   c2.451-1.015,4.399-2.962,5.414-5.414l13.768-33.253l35.677,4.671c2.624,0.344,5.275-0.367,7.376-1.975l28.579-21.875   l28.579,21.875c2.101,1.608,4.755,2.319,7.376,1.975l35.678-4.671l13.767,33.253c1.015,2.452,2.962,4.399,5.414,5.414   l33.253,13.768l-4.67,35.676c-0.344,2.623,0.366,5.275,1.975,7.376l21.875,28.579L348.115,194.418z" fill="#b0b0b0"/>
	<path d="M165.661,101.322c2.232,0,4.479-0.744,6.339-2.271c15.373-12.618,34.814-19.567,54.744-19.567c5.522,0,10-4.477,10-10   s-4.478-10-10-10c-24.544,0-48.492,8.562-67.434,24.107c-4.269,3.504-4.889,9.805-1.385,14.074   C159.902,100.075,162.77,101.322,165.661,101.322z" fill="#b0b0b0"/>
	<path d="M262.403,65.613c-5.204-1.85-10.922,0.867-12.774,6.069c-1.851,5.203,0.866,10.922,6.069,12.773   c34.333,12.215,57.4,44.921,57.4,81.383c0,47.616-38.738,86.354-86.354,86.354s-86.354-38.738-86.354-86.354   c0-16.938,4.899-33.333,14.168-47.414c3.037-4.613,1.759-10.814-2.854-13.851c-4.612-3.036-10.814-1.76-13.851,2.854   c-11.425,17.355-17.463,37.553-17.463,58.411c0,58.644,47.71,106.354,106.354,106.354s106.354-47.71,106.354-106.354   C333.098,120.936,304.688,80.658,262.403,65.613z" fill="#b0b0b0"/>
</g>
<g>
</g>
<g>
</g>
<g>
</g>
<g>
</g>
<g>
</g>
<g>
</g>
<g>
</g>
<g>
</g>
<g>
</g>
<g>
</g>
<g>
</g>
<g>
</g>
<g>
</g>
<g>
</g>
<g>
</g>
</svg>
