<?xml version="1.0" encoding="iso-8859-1"?>
<!-- Generator: Adobe Illustrator 19.0.0, SVG Export Plug-In . SVG Version: 6.00 Build 0)  -->
<svg version="1.1" id="Capa_1" xmlns="http://www.w3.org/2000/svg" xmlns:xlink="http://www.w3.org/1999/xlink" x="0px" y="0px"
	 viewBox="0 0 504.911 504.911" style="enable-background:new 0 0 504.911 504.911;" xml:space="preserve">
<circle style="fill:#2AA0DA;" cx="252.062" cy="252.455" r="237.883"/>
<g>
	<path style="fill:#183651;" d="M339.495,504.517c-4.726,0-7.877-3.151-7.877-7.877v-28.357l-32.295-32.295
		c-1.575-1.575-2.363-3.151-2.363-5.514v-91.372c0-4.726,3.151-7.877,7.877-7.877c4.726,0,7.877,3.151,7.877,7.877v88.222
		l32.295,32.295c1.575,1.575,2.363,3.151,2.363,5.514v31.508C347.372,501.366,344.222,504.517,339.495,504.517z"/>
	<path style="fill:#183651;" d="M164.628,504.517c-4.726,0-7.877-3.151-7.877-7.877v-31.508c0-2.363,0.788-3.938,2.363-5.514
		l32.295-32.295v-88.222c0-4.726,3.151-7.877,7.877-7.877s7.877,3.151,7.877,7.877v92.16c0,2.363-0.788,3.938-2.363,5.514
		l-32.295,32.295v28.357C172.505,501.366,168.566,504.517,164.628,504.517z"/>
	<path style="fill:#183651;" d="M252.062,504.517c-4.726,0-7.877-3.151-7.877-7.877V384.788c0-4.726,3.151-7.877,7.877-7.877
		s7.877,3.151,7.877,7.877V496.64C259.938,501.366,256.788,504.517,252.062,504.517z"/>
	<path style="fill:#183651;" d="M198.498,173.686c-4.726,0-7.877-3.151-7.877-7.877V77.588l-32.295-32.295
		c-1.575-1.575-2.363-3.151-2.363-5.514V8.271c0-4.726,3.151-7.877,7.877-7.877c4.726,0,7.877,3.151,7.877,7.877v28.357
		l32.295,32.295c1.575,1.575,2.363,3.151,2.363,5.514v92.16C206.375,170.535,203.225,173.686,198.498,173.686z"/>
	<path style="fill:#183651;" d="M305.625,173.686c-4.726,0-7.877-3.151-7.877-7.877V74.437c0-2.363,0.788-3.938,2.363-5.514
		l32.295-32.295V8.271c0-4.726,3.151-7.877,7.877-7.877s7.877,3.151,7.877,7.877v31.508c0,2.363-0.788,3.938-2.363,5.514
		l-32.295,32.295v88.222C313.502,170.535,309.563,173.686,305.625,173.686z"/>
	<path style="fill:#183651;" d="M252.062,128c-4.726,0-7.877-3.151-7.877-7.877V8.271c0-4.726,3.151-7.877,7.877-7.877
		s7.877,3.151,7.877,7.877v111.852C259.938,124.849,256.788,128,252.062,128z"/>
	<path style="fill:#183651;" d="M430.08,206.769h-91.372c-4.726,0-7.877-3.151-7.877-7.877c0-4.726,3.151-7.877,7.877-7.877h88.222
		l32.295-32.295c1.575-1.575,3.151-2.363,5.514-2.363h31.508c4.726,0,7.877,3.151,7.877,7.877c0,4.726-3.151,7.877-7.877,7.877
		h-28.357l-32.295,32.295C434.806,205.982,432.443,206.769,430.08,206.769z"/>
	<path style="fill:#183651;" d="M496.246,347.766h-31.508c-2.363,0-3.938-0.788-5.514-2.363l-32.295-32.295h-88.222
		c-4.726,0-7.877-3.151-7.877-7.877s3.151-7.877,7.877-7.877h92.16c2.363,0,3.938,0.788,5.514,2.363l32.295,32.295h28.357
		c4.726,0,7.877,3.151,7.877,7.877C504.123,344.615,500.972,347.766,496.246,347.766z"/>
	<path style="fill:#183651;" d="M496.246,260.332H384.394c-4.726,0-7.877-3.151-7.877-7.877c0-4.726,3.151-7.877,7.877-7.877
		h111.852c4.726,0,7.877,3.151,7.877,7.877C504.123,257.182,500.972,260.332,496.246,260.332z"/>
	<path style="fill:#183651;" d="M39.385,348.554H7.877c-4.726,0-7.877-3.151-7.877-7.877c0-4.726,3.151-7.877,7.877-7.877h28.357
		l32.295-32.295c1.575-1.575,3.151-2.363,5.514-2.363h92.16c4.726,0,7.877,3.151,7.877,7.877c0,4.726-3.151,7.877-7.877,7.877
		H77.194l-32.295,32.295C43.323,346.978,41.748,348.554,39.385,348.554z"/>
	<path style="fill:#183651;" d="M165.415,206.769h-92.16c-2.363,0-3.938-0.788-5.514-2.363l-32.295-32.295H7.877
		c-4.726,0-7.877-3.151-7.877-7.877c0-4.726,3.151-7.877,7.877-7.877h31.508c2.363,0,3.938,0.788,5.514,2.363l32.295,32.295h88.222
		c4.726,0,7.877,3.151,7.877,7.877S170.142,206.769,165.415,206.769z"/>
	<path style="fill:#183651;" d="M119.729,260.332H7.877c-4.726,0-7.877-3.151-7.877-7.877c0-4.726,3.151-7.877,7.877-7.877h111.852
		c4.726,0,7.877,3.151,7.877,7.877C127.606,257.182,124.455,260.332,119.729,260.332z"/>
</g>
<path style="fill:#FFFFFF;" d="M384.394,269.785v-33.871l-32.295-5.514c-2.363-11.028-7.089-22.055-13.391-31.508l18.905-26.782
	l-24.418-24.418l-26.782,18.905c-9.452-6.302-20.48-10.24-31.508-13.391l-5.514-32.295H235.52l-5.514,32.295
	c-11.028,2.363-22.055,7.089-31.508,13.391l-26.782-18.905l-24.418,24.418l18.905,26.782c-6.302,9.452-10.24,20.48-13.391,31.508
	l-32.295,5.514v33.871l32.295,5.514c2.363,11.028,7.089,22.055,13.391,31.508l-18.905,26.782l24.418,24.418l26.782-18.905
	c9.452,6.302,20.48,10.24,31.508,13.391l5.514,32.295h33.871l5.514-32.295c11.028-2.363,22.055-7.089,31.508-13.391l26.782,18.905
	l24.418-24.418l-18.905-26.782c6.302-9.452,10.24-20.48,13.391-31.508L384.394,269.785z"/>
<path style="fill:#183651;" d="M269.391,392.665H235.52c-3.938,0-7.089-2.363-7.877-6.302l-5.514-27.569
	c-8.665-2.363-16.542-5.514-24.418-10.24l-22.843,15.754c-3.151,2.363-7.089,1.575-10.24-0.788l-24.418-24.418
	c-2.363-2.363-3.151-7.089-0.788-10.24l15.754-22.843c-4.726-7.877-7.877-15.754-10.24-24.418l-27.569-4.726
	c-3.938-0.788-6.302-3.938-6.302-7.877v-33.871c0-3.938,2.363-7.089,6.302-7.877l27.569-4.726
	c2.363-8.665,5.514-16.542,10.24-24.418l-15.754-22.843c-2.363-3.151-1.575-7.089,0.788-10.24l24.418-24.418
	c2.363-2.363,7.089-3.151,10.24-0.788l22.843,15.754c7.877-4.726,15.754-7.877,24.418-10.24l4.726-27.569
	c0.788-3.938,3.938-6.302,7.877-6.302h33.871c3.938,0,7.089,2.363,7.877,6.302l4.726,27.569c8.665,2.363,16.542,5.514,24.418,10.24
	l22.843-15.754c3.151-2.363,7.089-1.575,10.24,0.788l24.418,24.418c2.363,2.363,3.151,7.089,0.788,10.24l-15.754,22.843
	c4.726,7.877,7.877,15.754,10.24,24.418l27.569,4.726c3.938,0.788,6.302,3.938,6.302,7.877v33.871c0,3.938-2.363,7.089-6.302,7.877
	l-27.569,5.514c-2.363,8.665-5.514,16.542-10.24,24.418l15.754,22.843c2.363,3.151,1.575,7.089-0.788,10.24l-24.418,24.418
	c-2.363,2.363-7.089,3.151-10.24,0.788l-22.843-15.754c-7.877,4.726-15.754,7.877-24.418,10.24l-4.726,27.569
	C276.48,389.514,273.329,392.665,269.391,392.665z M241.822,376.911h21.268l4.726-25.994c0.788-3.151,3.151-5.514,6.302-6.302
	c10.24-2.363,20.48-6.302,29.145-11.815c2.363-1.575,6.302-1.575,8.665,0l21.268,14.966L348.16,332.8l-15.754-21.268
	c-1.575-2.363-1.575-6.302,0-8.665c5.514-8.665,9.452-18.905,11.815-29.145c0.788-3.151,3.151-5.514,6.302-6.302l25.994-4.726
	v-21.268l-25.994-3.938c-3.151-0.788-5.514-3.151-6.302-6.302c-2.363-10.24-6.302-20.48-11.815-29.145
	c-1.575-2.363-1.575-6.302,0-8.665l14.966-21.268l-14.966-14.966l-21.268,14.966c-2.363,1.575-6.302,1.575-8.665,0
	c-8.665-5.514-18.905-9.452-29.145-11.815c-3.151-0.788-5.514-3.151-6.302-6.302L262.302,128h-21.268l-3.938,25.994
	c-0.788,3.151-3.151,5.514-6.302,6.302c-10.24,2.363-20.48,6.302-29.145,11.815c-2.363,1.575-6.302,1.575-8.665,0l-21.268-14.966
	l-14.966,14.966l14.966,21.268c1.575,2.363,1.575,6.302,0,8.665c-5.514,8.665-9.452,18.905-11.815,29.145
	c-0.788,3.151-3.151,5.514-6.302,6.302l-25.994,4.726v21.268l25.994,4.726c3.151,0.788,5.514,3.151,6.302,6.302
	c2.363,10.24,6.302,20.48,11.815,29.145c1.575,2.363,1.575,6.302,0,8.665l-14.966,21.268l14.966,14.966l21.268-14.966
	c2.363-1.575,6.302-1.575,8.665,0c8.665,5.514,18.905,9.452,29.145,11.815c3.151,0.788,5.514,3.151,6.302,6.302L241.822,376.911z"/>
<circle style="fill:#FCBD5E;" cx="252.062" cy="252.455" r="73.255"/>
<circle style="fill:#FFFFFF;" cx="252.062" cy="252.455" r="30.72"/>
<g>
	<path style="fill:#183651;" d="M252.062,291.052c-21.268,0-38.597-17.329-38.597-38.597s17.329-38.597,38.597-38.597
		s38.597,17.329,38.597,38.597S273.329,291.052,252.062,291.052z M252.062,229.612c-12.603,0-22.843,10.24-22.843,22.843
		c0,12.603,10.24,22.843,22.843,22.843s22.843-10.24,22.843-22.843S264.665,229.612,252.062,229.612z"/>
	
		<rect x="78.149" y="134.226" transform="matrix(-0.7071 0.7071 -0.7071 -0.7071 247.3378 181.7552)" style="fill:#183651;" width="15.754" height="15.754"/>
	
		<rect x="105.437" y="106.22" transform="matrix(-0.7071 0.7071 -0.7071 -0.7071 274.1182 114.651)" style="fill:#183651;" width="15.754" height="15.754"/>
	
		<rect x="133.839" y="78.199" transform="matrix(-0.7071 0.7071 -0.7071 -0.7071 302.7891 46.7322)" style="fill:#183651;" width="15.754" height="15.754"/>
	
		<rect x="354.517" y="410.958" transform="matrix(-0.7072 0.707 -0.707 -0.7072 914.8 458.8233)" style="fill:#183651;" width="15.754" height="15.754"/>
	
		<rect x="382.924" y="382.976" transform="matrix(-0.7072 0.707 -0.707 -0.7072 943.514 390.968)" style="fill:#183651;" width="15.754" height="15.754"/>
	
		<rect x="410.21" y="354.931" transform="matrix(-0.7072 0.707 -0.707 -0.7072 970.2682 323.798)" style="fill:#183651;" width="15.754" height="15.754"/>
	
		<rect x="354.303" y="78.68" transform="matrix(-0.71 0.7042 -0.7042 -0.71 680.2816 -107.0347)" style="fill:#183651;" width="15.754" height="15.754"/>
	
		<rect x="383.008" y="106.477" transform="matrix(-0.71 0.7042 -0.7042 -0.71 748.9407 -79.716)" style="fill:#183651;" width="15.754" height="15.754"/>
	
		<rect x="410.594" y="134.279" transform="matrix(-0.7101 0.7041 -0.7041 -0.7101 815.7193 -51.5454)" style="fill:#183651;" width="15.754" height="15.754"/>
	
		<rect x="77.812" y="353.265" transform="matrix(-0.71 0.7042 -0.7042 -0.71 400.8445 557.2111)" style="fill:#183651;" width="15.754" height="15.754"/>
	
		<rect x="105.434" y="381.018" transform="matrix(-0.71 0.7042 -0.7042 -0.71 467.6216 585.217)" style="fill:#183651;" width="15.754" height="15.754"/>
	
		<rect x="133.584" y="408.263" transform="matrix(-0.71 0.7042 -0.7042 -0.71 534.944 611.9834)" style="fill:#183651;" width="15.754" height="15.754"/>
</g>
<g>
</g>
<g>
</g>
<g>
</g>
<g>
</g>
<g>
</g>
<g>
</g>
<g>
</g>
<g>
</g>
<g>
</g>
<g>
</g>
<g>
</g>
<g>
</g>
<g>
</g>
<g>
</g>
<g>
</g>
</svg>
