<?xml version="1.0" encoding="iso-8859-1"?>
<!-- Generator: Adobe Illustrator 19.0.0, SVG Export Plug-In . SVG Version: 6.00 Build 0)  -->
<svg xmlns="http://www.w3.org/2000/svg" xmlns:xlink="http://www.w3.org/1999/xlink" version="1.1" id="Capa_1" x="0px" y="0px" viewBox="0 0 412 412" style="enable-background:new 0 0 412 412;" xml:space="preserve" width="512px" height="512px">
<g>
	<g>
		<path d="M380,399.2h-28v-176c0-3.2-2.4-6.4-6.4-6.4h-11.2l-17.6-109.6c-0.8-3.2-3.2-4.8-5.6-4.8h-36c-3.2,0-5.6,2.4-5.6,4.8    L252,216.8h-22.4v-47.2c0-2.4-1.6-4-3.2-5.6c-2.4-0.8-4.8-0.8-6.4,0.8l-69.6,52v-47.2c0-2.4-1.6-4-3.2-5.6    c-2.4-0.8-4.8-0.8-6.4,0.8l-69.6,52h-9.6c-3.2,0-6.4,2.4-6.4,6.4v176h-24c-3.2,0-6.4,2.4-6.4,6.4c0,3.2,2.4,6.4,6.4,6.4h30.4h40    h104h140.8h34.4c3.2,0,6.4-2.4,6.4-6.4C386.4,402.4,383.2,399.2,380,399.2z M280,114.4h25.6l16.8,102.4H264L280,114.4z     M217.6,181.6v35.2h-47.2L217.6,181.6z M138.4,181.6v35.2H91.2L138.4,181.6z M147.2,399.2h-40v-76.8h40V399.2z M199.2,399.2h-40    v-76.8h40V399.2z M339.2,399.2H212v-82.4c0-3.2-2.4-6.4-6.4-6.4H100.8c-3.2,0-6.4,2.4-6.4,6.4V400h-28V228.8H72h71.2h8h71.2H256    h72.8h10.4V399.2z" fill="#868686"/>
	</g>
</g>
<g>
	<g>
		<path d="M316.8,28.8c0-0.8,0-1.6,0-2.4c0-14.4-12-26.4-26.4-26.4C276,0,264,12,264,26.4c0,0.8,0,1.6,0,2.4    c-4.8,4.8-9.6,12-9.6,19.2c0,8,4.8,14.4,12,19.2c0,6.4,2.4,12,6.4,16.8c2.4,2.4,5.6,2.4,8.8,0.8c2.4-2.4,2.4-5.6,0.8-8.8    c-2.4-2.4-3.2-5.6-3.2-9.6c0-0.8,0-0.8,0-1.6c0-2.4-0.8-4.8-3.2-6.4c-5.6-3.2-9.6-7.2-9.6-10.4c0-4,4-8,9.6-11.2    c2.4-1.6,4-4,3.2-7.2c-0.8-1.6-0.8-3.2-0.8-4c0-8,6.4-14.4,14.4-14.4s14.4,6.4,14.4,14.4c0,0.8,0,2.4-0.8,4    c-0.8,3.2,0.8,5.6,3.2,7.2c6.4,3.2,9.6,7.2,9.6,11.2s-3.2,8-9.6,10.4c-2.4,0.8-4,4-3.2,6.4c0,0.8,0,0.8,0,1.6c0,4-1.6,8-4.8,10.4    c-2.4,2.4-2.4,6.4,0,8.8c0.8,1.6,2.4,1.6,4,1.6c1.6,0,3.2-0.8,4-1.6c4.8-4.8,8-11.2,8-18.4c8-4.8,12-12,12-19.2    C329.6,40,324.8,33.6,316.8,28.8z" fill="#868686"/>
	</g>
</g>
<g>
	<g>
		<path d="M148.8,259.2h-40c-3.2,0-6.4,2.4-6.4,6.4c0,3.2,2.4,6.4,6.4,6.4h40c3.2,0,6.4-2.4,6.4-6.4    C155.2,262.4,152.8,259.2,148.8,259.2z" fill="#868686"/>
	</g>
</g>
<g>
	<g>
		<path d="M216,259.2h-40c-3.2,0-6.4,2.4-6.4,6.4c0,3.2,2.4,6.4,6.4,6.4h40c3.2,0,6.4-2.4,6.4-6.4    C221.6,262.4,219.2,259.2,216,259.2z" fill="#868686"/>
	</g>
</g>
<g>
	<g>
		<path d="M282.4,258.4h-40c-3.2,0-6.4,2.4-6.4,6.4c0.8,4,3.2,6.4,6.4,6.4h40c3.2,0,6.4-2.4,6.4-6.4    C288.8,261.6,286.4,258.4,282.4,258.4z" fill="#868686"/>
	</g>
</g>
<g>
	<g>
		<path d="M296,310.4h-56c-3.2,0-6.4,2.4-6.4,6.4v41.6c0,3.2,2.4,6.4,6.4,6.4h56c3.2,0,6.4-2.4,6.4-6.4v-41.6    C301.6,313.6,299.2,310.4,296,310.4z M289.6,352h-44v-29.6h44V352z" fill="#868686"/>
	</g>
</g>
<g>
</g>
<g>
</g>
<g>
</g>
<g>
</g>
<g>
</g>
<g>
</g>
<g>
</g>
<g>
</g>
<g>
</g>
<g>
</g>
<g>
</g>
<g>
</g>
<g>
</g>
<g>
</g>
<g>
</g>
</svg>
