<?xml version="1.0" encoding="iso-8859-1"?>
<!-- Generator: Adobe Illustrator 19.0.0, SVG Export Plug-In . SVG Version: 6.00 Build 0)  -->
<svg xmlns="http://www.w3.org/2000/svg" xmlns:xlink="http://www.w3.org/1999/xlink" version="1.1" id="Capa_1" x="0px" y="0px" viewBox="0 0 512 512" style="enable-background:new 0 0 512 512;" xml:space="preserve" width="512px" height="512px">
<g>
	<g>
		<path d="M491.669,485.888L286.443,330.347c-18.197-13.867-42.709-13.888-60.885-0.021L20.331,485.888    c-4.715,3.563-5.632,10.24-2.069,14.933c3.563,4.715,10.261,5.589,14.933,2.069l205.248-155.584    c10.517-7.957,24.576-7.979,35.115,0.021l205.248,155.563c1.92,1.472,4.203,2.176,6.443,2.176c3.2,0,6.4-1.472,8.491-4.245    C497.301,496.128,496.384,489.451,491.669,485.888z" fill="#d9d9d9"/>
	</g>
</g>
<g>
	<g>
		<path d="M498.219,178.709c-3.52-4.693-10.261-5.632-14.933-2.069l-206.4,156.203c-4.693,3.541-5.632,10.24-2.069,14.933    c2.069,2.773,5.269,4.224,8.491,4.224c2.261,0,4.523-0.704,6.443-2.155l206.4-156.203    C500.843,190.101,501.781,183.403,498.219,178.709z" fill="#d9d9d9"/>
	</g>
</g>
<g>
	<g>
		<path d="M235.115,332.821l-206.4-156.203c-4.651-3.541-11.392-2.667-14.933,2.069c-3.563,4.693-2.624,11.392,2.069,14.933    l206.4,156.203c1.92,1.472,4.203,2.176,6.443,2.176c3.2,0,6.421-1.451,8.491-4.245    C240.747,343.061,239.808,336.363,235.115,332.821z" fill="#d9d9d9"/>
	</g>
</g>
<g>
	<g>
		<path d="M489.835,166.763L454.827,137.6c-4.501-3.755-11.221-3.179-15.019,1.344c-3.776,4.523-3.179,11.243,1.344,15.019    l34.987,29.163c2.475,2.048,3.861,5.056,3.861,8.213V480c0,5.867-4.8,10.667-10.667,10.667H42.667C36.8,490.667,32,485.867,32,480    V191.339c0-3.179,1.387-6.165,3.84-8.213l34.987-29.163c4.523-3.776,5.141-10.496,1.365-15.019    c-3.776-4.544-10.517-5.141-15.019-1.365l-35.029,29.184c-7.296,6.123-11.477,15.083-11.477,24.576V480c0,17.643,14.357,32,32,32    h426.667c17.643,0,32-14.357,32-32V191.339C501.333,181.824,497.152,172.885,489.835,166.763z" fill="#d9d9d9"/>
	</g>
</g>
<g>
	<g>
		<path d="M448,0H64c-5.888,0-10.667,4.779-10.667,10.667v204.544c0,5.888,4.779,10.667,10.667,10.667s10.667-4.779,10.667-10.667    V21.333h362.667v193.984c0,5.888,4.779,10.667,10.667,10.667c5.888,0,10.667-4.779,10.667-10.667V10.667    C458.667,4.779,453.888,0,448,0z" fill="#d9d9d9"/>
	</g>
</g>
<g>
	<g>
		<path d="M256,85.333c-5.888,0-10.667,4.779-10.667,10.667v128c0,5.888,4.779,10.667,10.667,10.667s10.667-4.779,10.667-10.667V96    C266.667,90.112,261.888,85.333,256,85.333z" fill="#d9d9d9"/>
	</g>
</g>
<g>
	<g>
		<path d="M320,149.333H192c-5.888,0-10.667,4.779-10.667,10.667s4.779,10.667,10.667,10.667h128    c5.888,0,10.667-4.779,10.667-10.667S325.888,149.333,320,149.333z" fill="#d9d9d9"/>
	</g>
</g>
<g>
</g>
<g>
</g>
<g>
</g>
<g>
</g>
<g>
</g>
<g>
</g>
<g>
</g>
<g>
</g>
<g>
</g>
<g>
</g>
<g>
</g>
<g>
</g>
<g>
</g>
<g>
</g>
<g>
</g>
</svg>
