<?xml version="1.0" encoding="iso-8859-1"?>
<!-- Generator: Adobe Illustrator 19.0.0, SVG Export Plug-In . SVG Version: 6.00 Build 0)  -->
<svg xmlns="http://www.w3.org/2000/svg" xmlns:xlink="http://www.w3.org/1999/xlink" version="1.1" id="Capa_1" x="0px" y="0px" viewBox="0 0 512 512" style="enable-background:new 0 0 512 512;" xml:space="preserve" width="512px" height="512px">
<g>
	<g>
		<path d="M331.753,11.396C307.311,3.834,281.824,0,256,0C187.62,0,123.333,26.629,74.981,74.98C26.629,123.333,0,187.62,0,256    c0,109.987,69.975,207.491,174.122,242.624c0.797,0.269,1.606,0.396,2.403,0.396c3.136,0,6.062-1.978,7.119-5.114    c1.328-3.933-0.785-8.196-4.717-9.523C80.894,451.313,15.029,359.533,15.029,256c0-64.365,25.066-124.879,70.579-170.392    S191.635,15.03,256,15.03c24.317,0,48.309,3.608,71.311,10.724c3.969,1.229,8.174-0.993,9.4-4.958    C337.938,16.831,335.718,12.622,331.753,11.396z" fill="#d9d9d9"/>
	</g>
</g>
<g>
	<g>
		<path d="M470.473,116.171c-26.468-40.518-63.635-72.61-107.483-92.808c-3.77-1.738-8.233-0.088-9.969,3.682    c-1.736,3.77-0.088,8.233,3.682,9.969c41.277,19.014,76.268,49.228,101.188,87.377c25.567,39.137,39.08,84.647,39.08,131.61    c0,64.365-25.065,124.878-70.579,170.392C380.879,471.905,320.365,496.97,256,496.97c-15.271,0-30.55-1.437-45.412-4.271    c-4.075-0.783-8.012,1.896-8.789,5.974c-0.777,4.077,1.897,8.013,5.974,8.79C223.561,510.473,239.787,512,256,512    c68.38,0,132.667-26.628,181.02-74.98C485.371,388.667,512,324.38,512,256C512,206.111,497.64,157.759,470.473,116.171z" fill="#d9d9d9"/>
	</g>
</g>
<g>
	<g>
		<path d="M352.391,248.485h-88.876v-88.876c0-4.15-3.364-7.515-7.515-7.515c-4.15,0-7.515,3.364-7.515,7.515v88.876H159.61    c-4.15,0-7.515,3.364-7.515,7.515c0,4.15,3.364,7.515,7.515,7.515h88.876v88.875c-0.001,4.151,3.364,7.515,7.514,7.515    c4.15,0,7.515-3.364,7.515-7.515v-88.875h88.876c4.15,0,7.515-3.365,7.515-7.515C359.906,251.85,356.542,248.485,352.391,248.485z    " fill="#d9d9d9"/>
	</g>
</g>
<g>
</g>
<g>
</g>
<g>
</g>
<g>
</g>
<g>
</g>
<g>
</g>
<g>
</g>
<g>
</g>
<g>
</g>
<g>
</g>
<g>
</g>
<g>
</g>
<g>
</g>
<g>
</g>
<g>
</g>
</svg>
