<?xml version="1.0" encoding="iso-8859-1"?>
<!-- Generator: Adobe Illustrator 19.0.0, SVG Export Plug-In . SVG Version: 6.00 Build 0)  -->
<svg xmlns="http://www.w3.org/2000/svg" xmlns:xlink="http://www.w3.org/1999/xlink" version="1.1" id="Capa_1" x="0px" y="0px" viewBox="0 0 511.993 511.993" style="enable-background:new 0 0 511.993 511.993;" xml:space="preserve" width="512px" height="512px">
<g>
	<g>
		<path d="M503.535,22.174c-6.423-10.536-16.566-17.952-28.581-20.864c-12.014-2.888-24.399-0.947-34.634,5.291L249.592,118.936    l-180.517,0.092c-38.238,3.327-67.812,35.997-67.35,74.097v69.753c0.046,1.571,0.139,3.119,0.277,4.852    c1.64,17.398,9.935,33.132,23.382,44.269c13.447,11.136,30.244,16.312,45.678,14.879h46.209v120.861    c0.046,1.571,0.139,3.119,0.277,4.852c1.64,17.398,9.935,33.132,23.382,44.269c11.945,9.889,26.617,15.134,40.41,15.134    c1.779,0,3.512-0.092,5.245-0.254h46.209c12.777,0,23.105-10.351,23.105-23.105V330.852l184.098,112.751    c0.069,0.046,0.115,0.092,0.185,0.116c5.822,3.466,12.477,5.684,19.269,6.354c1.525,0.162,3.073,0.231,4.575,0.231    c10.674,0,20.91-3.651,29.227-10.536c9.542-7.832,15.457-18.923,16.774-33.456V51.008    C511.067,40.958,508.803,30.792,503.535,22.174z M209.69,465.576l-25.276,0.046c-4.852,0.508-10.051-1.063-14.001-4.344    s-6.377-7.879-6.931-14.025V326.878h46.209V465.576z M209.69,280.738l-68.806,0.023c-0.185,0-0.323-0.092-0.508-0.092    c-0.185,0-0.323,0.092-0.508,0.092l-70.978,0.046c-4.852,0.485-10.051-1.063-14.001-4.344c-3.951-3.281-6.377-7.879-6.931-14.025    v-69.614c-0.185-14.325,10.859-26.501,23.105-27.656H209.69V280.738z M371.423,347.441L267.96,284.088    c-3.627-2.195-7.786-3.373-12.061-3.373V165.169c4.136,0,8.179-1.109,11.737-3.188l103.786-61.135V347.441z M463.841,49.645    l0.115,354.472l-46.81-28.65c0.092-0.809,0.485-1.525,0.485-2.357V73.628l46.464-27.356    C463.934,47.381,463.841,48.513,463.841,49.645z" fill="#999ec0"/>
	</g>
</g>
<g>
</g>
<g>
</g>
<g>
</g>
<g>
</g>
<g>
</g>
<g>
</g>
<g>
</g>
<g>
</g>
<g>
</g>
<g>
</g>
<g>
</g>
<g>
</g>
<g>
</g>
<g>
</g>
<g>
</g>
</svg>
