<?xml version="1.0"?>
<svg xmlns="http://www.w3.org/2000/svg" height="512px" viewBox="-16 0 384 384" width="512px"><path d="m318.289062 33.6875c-6.289062-20.152344-24.703124-33.6875-45.816406-33.6875h-192.945312c-21.113282 0-39.519532 13.535156-45.816406 33.679688l-28.984376 92.726562v.007812c-3.132812 10.058594-4.726562 20.488282-4.726562 31.019532v194.566406c0 17.648438 14.351562 32 32 32h288c17.648438 0 32-14.351562 32-32v-194.566406c0-10.523438-1.59375-20.960938-4.726562-31.027344zm-283.007812 102.265625 28.984375-92.738281c2.085937-6.710938 8.222656-11.214844 15.261719-11.214844h192.945312c7.039063 0 13.175782 4.503906 15.269532 11.222656l28.984374 92.722656c2.175782 6.964844 3.28125 14.191407 3.28125 21.488282v18.566406h-288.007812v-18.566406c0-7.28125 1.105469-14.511719 3.28125-21.480469zm-3.28125 216.046875v-144h288v144zm0 0" fill="#999ec0"/><path d="m128 152h96c17.648438 0 32-14.351562 32-32v-32c0-17.648438-14.351562-32-32-32h-96c-17.648438 0-32 14.351562-32 32v32c0 17.648438 14.351562 32 32 32zm0-64h96v32h-96l-.015625-32zm0 0" fill="#999ec0"/><path d="m176 232c-39.695312 0-72 21.527344-72 48s32.304688 48 72 48 72-21.527344 72-48-32.304688-48-72-48zm0 64c-24.847656 0-39.59375-11.992188-40-16 .40625-4.007812 15.152344-16 40-16 24.894531 0 39.648438 12.03125 40 15.976562-.351562 3.992188-15.105469 16.023438-40 16.023438zm0 0" fill="#999ec0"/></svg>
