<?xml version="1.0" encoding="iso-8859-1"?>
<!-- Generator: Adobe Illustrator 19.0.0, SVG Export Plug-In . SVG Version: 6.00 Build 0)  -->
<svg xmlns="http://www.w3.org/2000/svg" xmlns:xlink="http://www.w3.org/1999/xlink" version="1.1" id="Layer_1" x="0px" y="0px" viewBox="0 0 328 328" style="enable-background:new 0 0 328 328;" xml:space="preserve" width="512px" height="512px">
<g id="XMLID_496_">
	<path id="XMLID_497_" d="M115,126.75c34.601,0,62.751-28.149,62.751-62.749C177.751,29.4,149.601,1.25,115,1.25   c-34.601,0-62.751,28.15-62.751,62.751C52.249,98.601,80.399,126.75,115,126.75z M115,31.25c18.059,0,32.751,14.692,32.751,32.751   c0,18.058-14.692,32.749-32.751,32.749c-18.059,0-32.751-14.691-32.751-32.749C82.249,45.942,96.941,31.25,115,31.25z" fill="#999ec0"/>
	<path id="XMLID_501_" d="M238.606,181.143c-5.858-5.857-15.356-5.857-21.213,0.001l-30,30.002   c-2.813,2.814-4.393,6.629-4.393,10.607c0,3.978,1.581,7.794,4.394,10.607l30,29.998c2.929,2.929,6.768,4.393,10.606,4.393   c3.839,0,7.678-1.465,10.607-4.394c5.858-5.858,5.857-15.356-0.001-21.213l-19.393-19.392l19.393-19.395   C244.465,196.498,244.464,187.001,238.606,181.143z" fill="#999ec0"/>
	<path id="XMLID_502_" d="M223,116.75c-34.488,0-65.144,16.716-84.297,42.47c-7.763-1.628-15.694-2.47-23.703-2.47   c-63.411,0-115,51.589-115,115c0,8.284,6.716,15,15,15h125.596c19.247,24.348,49.031,40,82.404,40c57.897,0,105-47.103,105-105   S280.897,116.75,223,116.75z M31.325,256.75c7.106-39.739,41.923-70,83.675-70c2.966,0,5.914,0.165,8.841,0.467   c-3.779,10.82-5.841,22.44-5.841,34.533c0,12.268,2.122,24.047,6.006,35H31.325z M223,296.75c-41.355,0-75-33.645-75-75   s33.645-75,75-75s75,33.645,75,75S264.355,296.75,223,296.75z" fill="#999ec0"/>
</g>
<g>
</g>
<g>
</g>
<g>
</g>
<g>
</g>
<g>
</g>
<g>
</g>
<g>
</g>
<g>
</g>
<g>
</g>
<g>
</g>
<g>
</g>
<g>
</g>
<g>
</g>
<g>
</g>
<g>
</g>
</svg>
