<?xml version="1.0" encoding="iso-8859-1"?>
<!-- Generator: Adobe Illustrator 19.0.0, SVG Export Plug-In . SVG Version: 6.00 Build 0)  -->
<svg xmlns="http://www.w3.org/2000/svg" xmlns:xlink="http://www.w3.org/1999/xlink" version="1.1" id="Capa_1" x="0px" y="0px" viewBox="0 0 512 512" style="enable-background:new 0 0 512 512;" xml:space="preserve" width="512px" height="512px">
<g>
	<g>
		<path d="M479.607,345.936c8.785-33.844-7.2-70.938-40.941-86.671l-54.38-25.358c-3.146-1.467-6.379-2.524-9.638-3.219    c9.984-8.261,16.357-20.741,16.357-34.681v-60.002c0-36.659-26.444-67.238-61.254-73.718C323.412,27.45,293.022,0,256,0    c-36.991,0-67.406,27.423-73.751,62.287c-34.81,6.479-61.254,37.058-61.254,73.718v60.002c0,13.94,6.372,26.42,16.357,34.681    c-3.26,0.695-6.492,1.751-9.639,3.218l-54.38,25.358c-33.747,15.737-49.725,52.833-40.941,86.671    C3.073,366.636-8.4,405.581,7.033,438.676c15.448,33.127,52.928,50.713,87.657,41.895c20.581,28.868,59.52,39.902,92.755,24.405    l54.38-25.358c5.524-2.576,10.288-6.223,14.176-10.591c3.887,4.368,8.651,8.015,14.175,10.591l54.38,25.358    c33.248,15.504,72.182,4.449,92.754-24.405c34.344,8.722,72.036-8.394,87.657-41.895    C520.4,405.582,508.927,366.636,479.607,345.936z M371.609,261.099l54.379,25.356c18.371,8.566,28.244,28.037,25.53,47.14    c-32.939-7.034-68.21,8.987-83.467,41.615l25.324-54.307c3.501-7.508,0.252-16.434-7.255-19.935l-27.19-12.679    c-7.496-3.495-10.751-12.438-7.255-19.935C355.177,260.842,364.095,257.593,371.609,261.099z M256,30.001    c24.394,0,45.002,21.066,45.002,46.002c0,24.814-20.188,45.002-45.002,45.002s-45.002-20.188-45.002-45.002    C210.999,51.067,231.607,30.001,256,30.001z M150.997,136.005c0-20.277,13.484-37.458,31.953-43.065    c7.701,33.222,37.519,58.066,73.051,58.066s65.349-24.844,73.051-58.066c18.47,5.607,31.953,22.789,31.953,43.065v60.002    c0,8.271-6.729,15.001-15,15.001s-15.001-6.729-15.001-15.001v-30.001c0-8.284-6.716-15.001-15-15.001H256h-60.002    c-8.284,0-15,6.716-15,15.001v30.001c0,8.271-6.729,15.001-15.001,15.001s-15.001-6.729-15.001-15.001V136.005z M86.012,286.455    l54.38-25.358c7.514-3.503,16.431-0.259,19.935,7.255c3.504,7.513,0.259,16.432-7.255,19.935l-27.19,12.679    c-7.508,3.501-10.756,12.426-7.255,19.935l25.337,54.335c-15.247-32.642-50.527-48.68-83.48-41.643    C57.768,314.492,67.642,295.021,86.012,286.455z M95.026,448.764c-22.53,10.506-50.272-0.18-60.804-22.767    c-10.387-22.278-0.174-49.106,22.768-59.803c22.581-10.53,49.314-0.729,59.803,21.767    C127.31,410.513,117.342,438.358,95.026,448.764z M229.147,452.428l-54.38,25.358c-18.383,8.572-39.66,3.607-52.546-10.772    c10.99-8.64,19.405-20.287,24.297-33.96c6.828-19.086,5.935-39.587-2.514-57.731l25.339,54.34    c3.498,7.501,12.425,10.757,19.935,7.255l27.19-12.679c7.514-3.503,16.431-0.259,19.935,7.255    C239.983,439.173,236.593,448.956,229.147,452.428z M256,407.427c-12.656-13.849-33.627-19.046-52.213-10.379l-13.595,6.339    l-38.037-81.57l13.595-6.339c22.489-10.486,32.253-37.314,21.767-59.804c-2.92-6.262-7.11-11.534-12.117-15.661    c20.315-4.336,35.599-22.417,35.599-44.006v-15.001h90.003v15.001c0,21.589,15.285,39.669,35.599,44.006    c-5.008,4.126-9.197,9.398-12.117,15.661c-10.486,22.49-0.722,49.317,21.767,59.804l13.596,6.339l-38.037,81.57l-13.595-6.339    C289.631,388.384,268.659,393.575,256,407.427z M337.235,477.787l-54.38-25.358c-7.446-3.472-10.836-13.254-7.255-20.935    c3.496-7.497,12.439-10.751,19.935-7.255l27.19,12.679c7.502,3.498,16.435,0.252,19.935-7.255l25.329-54.317    c-8.438,18.14-9.329,38.63-2.504,57.708c4.892,13.673,13.306,25.32,24.297,33.96C376.895,481.394,355.619,486.359,337.235,477.787    z M477.777,425.997c-10.525,22.571-38.261,33.28-60.804,22.767c-22.315-10.405-32.283-38.25-21.767-60.804    c10.512-22.546,37.26-32.278,59.803-21.767C477.953,376.891,488.167,403.719,477.777,425.997z" fill="#999ec0"/>
	</g>
</g>
<g>
</g>
<g>
</g>
<g>
</g>
<g>
</g>
<g>
</g>
<g>
</g>
<g>
</g>
<g>
</g>
<g>
</g>
<g>
</g>
<g>
</g>
<g>
</g>
<g>
</g>
<g>
</g>
<g>
</g>
</svg>
