<?xml version="1.0"?>
<svg xmlns="http://www.w3.org/2000/svg" height="512px" viewBox="0 0 384 384" width="512px"><path d="m0 0v384h384v-320h-352v-64zm352 96v256h-320v-256zm0 0" fill="#999ec0"/><path d="m320 176c0-26.472656-21.527344-48-48-48s-48 21.527344-48 48v144h96zm-48-16c8.824219 0 16 7.175781 16 16s-7.175781 16-16 16-16-7.175781-16-16 7.175781-16 16-16zm16 128h-32v-66.742188c.167969.054688.351562.070313.519531.132813 2.34375.800781 4.769531 1.425781 7.265625 1.855469.023438.011718.054688.011718.078125.019531 2.65625.445313 5.359375.734375 8.136719.734375s5.480469-.289062 8.136719-.742188c.03125-.011718.054687-.011718.078125-.019531 2.496094-.429687 4.921875-1.046875 7.265625-1.855469.167969-.054687.351562-.070312.519531-.136718zm0 0" fill="#999ec0"/><path d="m64 224h128v32h-128zm0 0" fill="#999ec0"/><path d="m64 160h128v32h-128zm0 0" fill="#999ec0"/><path d="m64 288h128v32h-128zm0 0" fill="#999ec0"/></svg>
