<?xml version="1.0" encoding="iso-8859-1"?>
<!-- Generator: Adobe Illustrator 19.1.0, SVG Export Plug-In . SVG Version: 6.00 Build 0)  -->
<svg xmlns="http://www.w3.org/2000/svg" xmlns:xlink="http://www.w3.org/1999/xlink" version="1.1" id="Capa_1" x="0px" y="0px" viewBox="0 0 529.286 529.286" style="enable-background:new 0 0 529.286 529.286;" xml:space="preserve" width="512px" height="512px">
<g>
	<g>
		<g>
			<path d="M358.099,74.604c0,0-28.097-12.644-28.097,16.896s27.837,49.363,28.19,49.3c49.147,32.081,81.629,87.559,81.629,150.629     c0,97.746-78.016,177.269-175.177,179.7c-97.161-2.431-175.177-81.954-175.177-179.7c0-63.071,32.483-118.547,81.629-150.629     c0.353,0.063,28.189-19.761,28.189-49.3s-28.097-16.896-28.097-16.896C88.7,111.958,31.31,194.983,31.31,291.429     c0,129.865,104.053,235.413,233.334,237.857c129.281-2.445,233.332-107.992,233.332-237.857     C497.977,194.983,440.587,111.958,358.099,74.604z" fill="#999ec0"/>
			<path d="M266.278,0c-26.143,0-34.312,19.141-34.312,26.627v117.159v117.159c0,7.487,8.17,26.627,34.312,26.627     c26.143,0,31.045-19.141,31.045-26.627V143.786V26.627C297.322,19.14,292.421,0,266.278,0z" fill="#999ec0"/>
		</g>
	</g>
	<g>
	</g>
	<g>
	</g>
	<g>
	</g>
	<g>
	</g>
	<g>
	</g>
	<g>
	</g>
	<g>
	</g>
	<g>
	</g>
	<g>
	</g>
	<g>
	</g>
	<g>
	</g>
	<g>
	</g>
	<g>
	</g>
	<g>
	</g>
	<g>
	</g>
</g>
<g>
</g>
<g>
</g>
<g>
</g>
<g>
</g>
<g>
</g>
<g>
</g>
<g>
</g>
<g>
</g>
<g>
</g>
<g>
</g>
<g>
</g>
<g>
</g>
<g>
</g>
<g>
</g>
<g>
</g>
</svg>
