<?xml version="1.0"?>
<svg xmlns="http://www.w3.org/2000/svg" height="512px" viewBox="0 -11 511.99956 511" width="512px"><path d="m494.871094 172.183594-152.664063-22.1875-68.269531-138.363282c-7.324219-14.839843-28.546875-14.847656-35.871094 0l-68.273437 138.363282-152.664063 22.1875c-16.371094 2.378906-22.933594 22.558594-11.085937 34.113281l110.472656 107.703125-26.078125 152.082031c-2.800781 16.304688 14.367188 28.789063 29.019531 21.082031l136.542969-71.800781 136.542969 71.800781c14.589843 7.671876 31.828125-4.703124 29.019531-21.082031l-26.078125-152.082031 110.472656-107.703125c11.84375-11.550781 5.292969-31.730469-11.085937-34.113281zm-134.835938 120.515625c-4.710937 4.59375-6.863281 11.214843-5.75 17.699219l21.007813 122.5-109.984375-57.832032c-5.828125-3.0625-12.789063-3.0625-18.617188 0l-109.984375 57.832032 21.007813-122.5c1.113281-6.484376-1.039063-13.105469-5.75-17.699219l-88.988282-86.757813 122.976563-17.875c6.511719-.945312 12.144531-5.039062 15.054687-10.941406l54.992188-111.449219 54.992188 111.449219c2.914062 5.902344 8.542968 9.996094 15.058593 10.941406l122.972657 17.875zm0 0" fill="#999ec0"/></svg>
