<?xml version="1.0"?>
<svg xmlns="http://www.w3.org/2000/svg" height="512px" viewBox="0 0 512.00037 512" width="512px"><path d="m511.992188 274.519531c.140624-5.359375-1.878907-10.550781-5.601563-14.410156l-37.492187-38.84375 21.210937-66.109375c1.714844-5.339844 1.105469-11.148438-1.671875-16.019531-2.777344-4.871094-7.472656-8.351563-12.9375-9.59375l-65.613281-14.917969-7.027344-58.992188c-.699219-5.867187-3.960937-11.125-8.90625-14.363281-4.945313-3.242187-11.066406-4.121093-16.726563-2.417969l-60.851562 18.339844-45.507812-50.570312c-3.792969-4.214844-9.195313-6.621094-14.867188-6.621094-5.667969 0-11.074219 2.40625-14.867188 6.621094l-45.390624 50.4375-60.730469-19.132813c-5.6875-1.792969-11.871094-.957031-16.875 2.28125-5.003907 3.238281-8.304688 8.539063-9 14.457031l-7.046875 59.96875-65.589844 14.910157c-5.464844 1.242187-10.160156 4.722656-12.9375 9.59375-2.777344 4.871093-3.386719 10.679687-1.671875 16.019531l21.210937 66.109375-37.492187 38.84375c-3.722656 3.859375-5.742187 9.050781-5.6015625 14.410156.1367185 5.359375 2.4218755 10.4375 6.3398435 14.097657l40.65625 37.96875-19.21875 66.507812c-1.5625 5.402344-.773437 11.214844 2.167969 16.011719 2.941406 4.792969 7.765625 8.128906 13.292969 9.183593l80.324218 15.355469c6.007813 1.148438 12.210938-.515625 16.835938-4.515625l50.730469-43.867187-18.8125 103.148437c-1.066407 5.835938.515625 11.84375 4.316406 16.398438 3.800781 4.558594 9.425781 7.191406 15.359375 7.191406h128c5.933594 0 11.558594-2.632812 15.359375-7.1875 3.796875-4.554688 5.382813-10.5625 4.316406-16.398438l-29-159c-1.980469-10.867187-12.398437-18.070312-23.265625-16.089843-10.867187 1.984375-18.066406 12.398437-16.085937 23.265625l24.699219 135.410156h-80.046876l24.699219-135.410156c1.519531-8.347656-2.386719-16.746094-9.753906-20.957032-7.367187-4.207031-16.585937-3.3125-23.003906 2.238282l-86.351563 74.667968-49.261718-9.417968 13.898437-48.101563 104.640625-44.625c7.480469-3.1875 12.285156-10.59375 12.152344-18.726562-.136719-8.132813-5.183594-15.375-12.765625-18.316407l-108.300781-42-15.285157-47.640624 49.105469-11.164063 89.304688 66.496094c6.421874 4.777343 15.066406 5.269531 21.988281 1.253906 6.921875-4.019531 10.777343-11.777344 9.8125-19.71875l-13.898438-113.964844 33.042969-36.714843 33.046875 36.714843-13.898437 113.964844c-.96875 7.945313 2.890624 15.699219 9.808593 19.71875 6.921875 4.015625 15.570313 3.523437 21.988281-1.253906l89.308594-66.496094 49.105469 11.164063-15.285156 47.640624-108.304688 42.003907c-7.582031 2.941406-12.632812 10.183593-12.765625 18.3125-.136718 8.132812 4.667969 15.539062 12.152344 18.730469l104.640625 44.621093 13.902344 48.117188-58.46875 11.222656c-10.847657 2.082031-17.953125 12.5625-15.871094 23.410156 2.082031 10.851563 12.570313 17.953125 23.410156 15.875l80-15.355469c5.523438-1.058593 10.34375-4.394531 13.28125-9.1875 2.9375-4.792968 3.722657-10.605468 2.164063-16.007812l-19.21875-66.503906 40.65625-37.972656c3.917968-3.660157 6.203125-8.738282 6.339844-14.097657zm-438.234376 22.324219-25.246093-23.582031 22.449219-23.261719 58.992187 22.878906zm67.757813-174.984375 4.527344-38.519531 37.664062 11.867187 7.789063 63.867188zm186.757813-26.476563 37.6875-11.359374 4.507812 37.847656-49.964844 37.203125zm112.765624 154.617188 22.453126 23.261719-25.25 23.582031-56.195313-23.964844zm0 0" fill="#999ec0"/></svg>
