<?xml version="1.0" encoding="iso-8859-1"?>
<!-- Generator: Adobe Illustrator 19.0.0, SVG Export Plug-In . SVG Version: 6.00 Build 0)  -->
<svg version="1.1" id="Capa_1" xmlns="http://www.w3.org/2000/svg" xmlns:xlink="http://www.w3.org/1999/xlink" x="0px" y="0px"
	 viewBox="0 0 480 480" style="enable-background:new 0 0 480 480;" xml:space="preserve">
<g>
	<path style="fill:#48BBEE;" d="M291.965,5.659c1.551,0.343,3.097,0.7,4.637,1.073C295.062,6.359,293.516,6.001,291.965,5.659z"/>
	<path style="fill:#48BBEE;" d="M286.583,4.534c0.863,0.17,1.726,0.337,2.585,0.516C288.309,4.871,287.445,4.704,286.583,4.534z"/>
	<path style="fill:#48BBEE;" d="M298.525,7.201c1.054,0.265,2.106,0.537,3.154,0.815C300.63,7.738,299.579,7.465,298.525,7.201z"/>
	<path style="fill:#48BBEE;" d="M303.227,8.435c3.797,1.036,7.558,2.158,11.277,3.374C310.784,10.594,307.025,9.469,303.227,8.435z"
		/>
	<path style="fill:#48BBEE;" d="M245.557,0.07c0.554,0.013,1.107,0.031,1.66,0.047C246.664,0.101,246.111,0.083,245.557,0.07z"/>
	<path style="fill:#48BBEE;" d="M315.066,11.99c1.303,0.429,2.602,0.868,3.895,1.319C317.668,12.859,316.37,12.419,315.066,11.99z"
		/>
	<path style="fill:#48BBEE;" d="M251.289,0.272c0.553,0.026,1.106,0.049,1.658,0.078C252.395,0.321,251.842,0.298,251.289,0.272z"/>
	<path style="fill:#48BBEE;" d="M258.344,0.692c0.267,0.02,0.532,0.047,0.798,0.068C258.876,0.739,258.611,0.712,258.344,0.692z"/>
	<path style="fill:#48BBEE;" d="M276.214,2.719c0.631,0.096,1.259,0.204,1.888,0.304C277.473,2.922,276.846,2.814,276.214,2.719z"/>
	<path style="fill:#48BBEE;" d="M206.305,187.699c8.57,0,16.961,2.504,24.234,7.316l20.541,13.599
		c4.106,2.718,9.235,3.395,13.905,1.833l36.952-12.354l6.18-5.582c3.703-3.344,5.813-8.125,5.797-13.117
		c-0.023-4.273-1.602-8.379-4.391-11.551l-39.044,11.585c-1.349,0.4-2.809,0.064-3.847-0.886l-26.227-24.004
		c-1.742-1.598-3.68-0.977-4.227-0.746c-0.547,0.227-2.359,1.152-2.469,3.504l2.258,17.809c0.203,1.648-0.633,3.254-2.109,4.027
		c-1.469,0.773-3.273,0.559-4.516-0.547l-21.773-19.305c-7.484-3.953-16.664-2.773-22.937,3.035l-6.962,17.486
		c-1.093,2.745-2.924,5.134-5.291,6.902l-11.052,8.253l37.273-6.578C201.164,187.926,203.742,187.699,206.305,187.699z"/>
	<path style="fill:#48BBEE;" d="M319.172,13.384c19.196,6.712,37.28,15.794,53.904,26.892c-0.019,0.001-0.039,0.002-0.058,0.003
		c16.745,11.175,32.006,24.396,45.422,39.314l0.018-0.034c7.273,8.084,13.975,16.683,20.102,25.705
		c0.203,0.298,0.405,0.596,0.606,0.896c2.433,3.617,4.77,7.302,7.008,11.055c0.335,0.562,0.667,1.125,0.998,1.689
		c1.702,2.907,3.366,5.839,4.949,8.822l-0.012,0.039c13.481,25.433,22.533,53.577,26.106,83.412c-0.566,0.07-1.146,0.081-1.708-0.09
		l-77.07-24.492l3.594,15.977c0.758,3.348,2.82,6.117,5.805,7.809c2.984,1.688,6.422,2.02,9.672,0.945l8.898-2.945
		c1.227-0.41,2.555-0.207,3.602,0.555c1.039,0.75,1.656,1.957,1.656,3.242v21.734v0.015c0,8.867-4.203,17.208-11.328,22.485
		l-22.887,18.405c-3.526,2.835-8.699,2.185-11.413-1.435l-37.037-49.383c-3.905-5.207-9.306-9.1-15.481-11.158L320,208
		l60.539,78.621c5.438,4.527,12.445,6.926,19.836,6.414l11.359-0.777c1.227-0.055,2.43,0.402,3.258,1.324
		c0.82,0.922,1.172,2.168,0.953,3.383l-4.672,25.75c-0.156,0.84-0.57,1.609-1.195,2.195l-46.875,44.164l-35.023,88.531
		c-0.453,1.152-1.422,2.031-2.617,2.371c-4.414,1.27-8.906,1.895-13.367,1.895c-8.133,0-16.18-2.082-23.476-6.176
		c-11.227-6.293-19.289-16.566-22.703-28.934c-2.703-9.797-4.016-16.324-4.016-19.957v-33.391l-5.406-2.078
		c-12.453-4.789-23.461-12.805-31.844-23.18l-12.375-15.328l-53.172,9.492c-2.295,0.415-4.596,0.576-6.877,0.541
		c15.355,56.699,50.972,105.065,98.597,136.862C247.3,479.886,243.663,480,240,480c132.548,0,240-107.452,240-240
		C480,135.196,412.816,46.098,319.172,13.384z"/>
	<path style="fill:#48BBEE;" d="M263.744,1.169c0.649,0.064,1.296,0.133,1.944,0.202C265.04,1.302,264.393,1.232,263.744,1.169z"/>
	<path style="fill:#48BBEE;" d="M269.26,1.779c0.656,0.08,1.312,0.156,1.966,0.242C270.572,1.936,269.915,1.859,269.26,1.779z"/>
	<path style="fill:#48BBEE;" d="M311.64,150.129l12.453-9.207c0.514-0.38,0.838-0.896,1.233-1.364l0.261-0.087
		c2.206-2.765,2.385-6.76,0.177-9.74c-2.609-3.547-7.633-4.305-11.188-1.676l-10.328,7.641h-19.586c-4.422,0-8,3.582-8,8
		s3.578,8,8,8h4.25h17.969C308.594,151.695,310.265,151.145,311.64,150.129z"/>
	<path style="fill:#48BBEE;" d="M281.409,3.571c0.826,0.144,1.649,0.293,2.472,0.446C283.058,3.864,282.234,3.714,281.409,3.571z"/>
	<path style="fill:#48BBEE;" d="M355.179,142.488c1.633,0,3.281-0.5,4.703-1.535c0.213-0.155,0.414-0.32,0.607-0.491
		c1.339-1.2,2.161-2.787,2.486-4.462l0.045-0.012c0.401-2.099-0.027-4.352-1.389-6.214l-20.477-28.086
		c-2.602-3.563-7.602-4.355-11.172-1.75c-3.57,2.602-4.359,7.609-1.75,11.18l20.477,28.086
		C350.273,141.348,352.711,142.488,355.179,142.488z"/>
	<path style="fill:#0E94D7;" d="M152.326,342.861c-3.923-0.06-7.781-0.756-11.428-2.048c-4.294-1.517-8.279-3.852-11.741-6.888
		c-0.206-0.18-0.412-0.358-0.614-0.543c-0.328-0.301-0.648-0.609-0.965-0.923c-0.285-0.281-0.564-0.567-0.84-0.858
		c-0.257-0.272-0.513-0.544-0.763-0.825c-0.337-0.379-0.662-0.77-0.984-1.165c-0.185-0.227-0.375-0.448-0.556-0.681
		c-0.5-0.644-0.984-1.303-1.443-1.987l0,0c0,0,0-0.001,0-0.001l-5.819-8.667c-8.669-12.907-11.844-28.427-9.361-43.306
		c0.033-0.2,0.061-0.401,0.096-0.6c0.043-0.241,0.094-0.482,0.14-0.723c0.079-0.416,0.155-0.831,0.243-1.246
		c0.012-0.059,0.028-0.117,0.04-0.176c0.827-3.844,2.034-7.63,3.631-11.302c0.535-1.23,1.114-2.446,1.736-3.648
		c0.007-0.014,0.014-0.029,0.021-0.043v0c0,0,0,0,0,0l12.258-23.644l-0.18-8.246c-0.281-12.746,7.844-23.766,19.742-27.387
		l-10.867-3.023c-8.281-2.305-14.148-9.617-14.609-18.199l-0.578-10.691c-0.57-10.629,7.273-19.836,17.859-20.957L148,143.953
		v-18.906c0-1.254,0.586-2.438,1.594-3.191l31.805-24.004c2.172-1.637,3.953-3.66,5.297-6.02l5.476-9.551l-35.555,6.977
		c-1.172,0.223-2.391-0.078-3.313-0.836c-0.93-0.762-1.461-1.895-1.461-3.09V74.367c0-10.938,4.883-21.148,13.406-28.02
		l50.094-40.402c1.281-1.035,3.07-1.176,4.508-0.352l35.07,20.199c0.938,0.539,2.023,0.668,3.078,0.387
		c1.039-0.293,1.906-0.977,2.422-1.926L273.81,2.446h0l0.016-0.027c36.315,5.125,70.007,18.384,99.191,37.861
		c0.02-0.001,0.039-0.002,0.058-0.003c-16.623-11.098-34.708-20.18-53.904-26.892c-0.071-0.025-0.141-0.05-0.211-0.074
		c-1.293-0.451-2.592-0.89-3.895-1.319c-0.187-0.062-0.375-0.121-0.562-0.182c-3.719-1.215-7.48-2.338-11.277-3.374
		c-0.516-0.141-1.031-0.281-1.548-0.419c-1.049-0.278-2.1-0.55-3.154-0.815c-0.64-0.16-1.282-0.314-1.923-0.469
		c-1.54-0.373-3.086-0.73-4.637-1.073c-0.931-0.206-1.861-0.414-2.797-0.609c-0.859-0.179-1.723-0.346-2.585-0.516
		c-0.899-0.177-1.799-0.351-2.702-0.518c-0.823-0.152-1.646-0.302-2.472-0.446c-1.099-0.191-2.202-0.371-3.306-0.548
		c-0.63-0.101-1.257-0.208-1.888-0.304c-1.657-0.251-3.321-0.481-4.989-0.698c-0.654-0.085-1.31-0.162-1.966-0.242
		c-1.188-0.145-2.379-0.281-3.573-0.408c-0.647-0.069-1.295-0.138-1.944-0.202c-1.53-0.151-3.063-0.287-4.601-0.409
		c-0.267-0.021-0.531-0.048-0.798-0.068c-1.793-0.136-3.593-0.246-5.397-0.342c-0.552-0.029-1.105-0.052-1.658-0.078
		c-1.354-0.063-2.712-0.115-4.072-0.155c-0.553-0.017-1.106-0.034-1.66-0.047C243.709,0.028,241.858,0,240,0
		C107.452,0,0,107.452,0,240c0,132.548,107.452,240,240,240c3.664,0,7.3-0.114,10.924-0.276
		C203.298,447.927,167.681,399.56,152.326,342.861z M113.18,87.945c2.32-3.77,7.242-4.953,11.008-2.629l12.789,7.852
		c2.906,1.785,4.359,5.219,3.625,8.551l-5.656,25.465c-0.828,3.73-4.141,6.266-7.805,6.266c-0.578,0-1.156-0.059-1.742-0.191
		c-4.313-0.957-7.031-5.23-6.078-9.543l4.422-19.898l-7.93-4.867C112.047,96.641,110.867,91.711,113.18,87.945z"/>
	<path style="fill:#00E389;" d="M360.489,140.462c-0.193,0.171-0.394,0.336-0.607,0.491
		C360.095,140.798,360.298,140.634,360.489,140.462z"/>
	<path style="fill:#00E389;" d="M251.08,208.615l6.506,4.307l7.4-2.474C260.315,212.009,255.186,211.333,251.08,208.615z"/>
	<path style="fill:#00E389;" d="M306.883,151.695h0.004c1.711,0,3.377-0.549,4.753-1.566l12.453-9.207l-12.453,9.207
		C310.265,151.145,308.594,151.695,306.883,151.695z"/>
	<path style="fill:#00E389;" d="M444.112,183.373l5.092,19.037l-49.767-15.815l77.07,24.492c0.563,0.171,1.143,0.16,1.708,0.09
		c-3.573-29.834-12.625-57.978-26.106-83.412l-7.524,24.997C441.588,162.723,441.424,173.323,444.112,183.373z"/>
	<path style="fill:#00E389;" d="M330.374,288.44l-0.877,1.315c-5.935,8.9-15.925,14.245-26.622,14.245h-93.748
		c-10.699,0-20.691,5.347-26.625,14.25l-15.068,22.602l-8.221,1.467c-6.264,1.118-12.555,0.53-18.314-1.504
		c3.648,1.292,7.505,1.987,11.428,2.048c2.281,0.035,4.582-0.126,6.877-0.541l53.172-9.492l12.375,15.328
		c8.383,10.375,19.391,18.391,31.844,23.18l5.406,2.078v33.391c0,3.633,1.313,10.16,4.016,19.957
		c3.414,12.367,11.477,22.641,22.703,28.934c7.297,4.094,15.344,6.176,23.476,6.176c4.461,0,8.953-0.625,13.367-1.895
		c1.195-0.34,2.164-1.219,2.617-2.371l35.023-88.531l46.875-44.164c0.625-0.586,1.039-1.355,1.195-2.195l4.672-25.75
		c0.219-1.215-0.133-2.461-0.953-3.383c-0.828-0.922-2.031-1.379-3.258-1.324l-11.359,0.777c-7.391,0.512-14.398-1.887-19.836-6.414
		l-34.502-5.129C339.911,280.581,333.81,283.287,330.374,288.44z"/>
	<path style="fill:#00E389;" d="M446.175,117.215c0.335,0.562,0.667,1.125,0.998,1.689
		C446.842,118.34,446.51,117.777,446.175,117.215z"/>
	<path style="fill:#00E389;" d="M438.56,105.264c0.203,0.298,0.405,0.596,0.606,0.896
		C438.965,105.861,438.763,105.562,438.56,105.264z"/>
	<path style="fill:#00E389;" d="M273.81,2.446c0.139,0.02,0.28,0.027,0.419,0.047c13.091,1.871,25.84,4.799,38.16,8.692
		c0.893,0.283,1.755,0.629,2.644,0.922c5.05,1.662,10.039,3.46,14.935,5.442c1.634,0.662,3.227,1.401,4.843,2.098
		c4.094,1.764,8.146,3.605,12.118,5.586c1.831,0.914,3.63,1.878,5.434,2.837c3.685,1.958,7.318,3.999,10.886,6.14
		c1.819,1.092,3.625,2.202,5.413,3.34c1.381,0.88,2.703,1.842,4.065,2.75c-97.838,4.528-180.374,67.618-213.349,155.027l1.951-0.371
		l11.052-8.253c2.367-1.768,4.199-4.156,5.291-6.902l6.962-17.486c6.273-5.809,15.453-6.988,22.937-3.035l21.773,19.305
		c1.242,1.105,3.047,1.32,4.516,0.547c1.477-0.773,2.313-2.379,2.109-4.027l-2.258-17.809c0.109-2.352,1.922-3.277,2.469-3.504
		c0.547-0.23,2.484-0.852,4.227,0.746l26.227,24.004c1.038,0.95,2.498,1.286,3.847,0.886l39.044-11.585L288,174.23l-2.03-3.61
		c-3.503-6.231-2.287-14.051,2.944-18.924h-4.25c-4.422,0-8-3.582-8-8s3.578-8,8-8h19.586l10.328-7.641
		c3.555-2.629,8.578-1.871,11.188,1.676c2.207,2.98,2.029,6.975-0.177,9.74L336,136h10.375l2.335,3.203l-20.477-28.086
		c-2.609-3.57-1.82-8.578,1.75-11.18c3.57-2.605,8.57-1.813,11.172,1.75l20.477,28.086c1.361,1.863,1.79,4.115,1.389,6.214
		l15.901-4.383c8.359-2.304,15.425-7.901,19.581-15.51l19.937-36.5c-13.416-14.917-28.677-28.138-45.422-39.314
		c-29.184-19.477-62.876-32.735-99.191-37.861L273.81,2.446z"/>
	<path style="fill:#00BBBB;" d="M115.813,98.949l7.93,4.867l-4.422,19.898c-0.953,4.313,1.766,8.586,6.078,9.543
		c0.586,0.133,1.164,0.191,1.742,0.191c3.664,0,6.977-2.535,7.805-6.266l5.656-25.465c0.734-3.332-0.719-6.766-3.625-8.551
		l-12.789-7.852c-3.766-2.324-8.688-1.141-11.008,2.629C110.867,91.711,112.047,96.641,115.813,98.949z"/>
	<path style="fill:#00BBBB;" d="M159.377,195.328c32.975-87.409,115.511-150.499,213.349-155.027
		c-1.362-0.907-2.684-1.87-4.065-2.75c-1.788-1.139-3.593-2.249-5.413-3.34c-3.567-2.141-7.201-4.182-10.886-6.14
		c-1.804-0.959-3.603-1.923-5.434-2.837c-3.972-1.981-8.024-3.822-12.118-5.586c-1.616-0.697-3.208-1.436-4.843-2.098
		c-4.896-1.982-9.885-3.78-14.935-5.442c-0.888-0.293-1.751-0.64-2.644-0.922c-12.32-3.894-25.068-6.822-38.16-8.692
		c-0.139-0.02-0.28-0.027-0.419-0.047h0l-13.388,21.808c-0.516,0.949-1.383,1.633-2.422,1.926c-1.055,0.281-2.141,0.152-3.078-0.387
		l-35.07-20.199c-1.438-0.824-3.227-0.684-4.508,0.352L165.25,46.348c-8.523,6.871-13.406,17.082-13.406,28.02v10.965
		c0,1.195,0.531,2.328,1.461,3.09c0.922,0.758,2.141,1.059,3.313,0.836l35.555-6.977l-5.476,9.551
		c-1.344,2.359-3.125,4.383-5.297,6.02l-31.805,24.004c-1.008,0.754-1.594,1.938-1.594,3.191v18.906l-10.656,1.133
		c-10.586,1.121-18.43,10.328-17.859,20.957l0.578,10.691c0.461,8.582,6.328,15.895,14.609,18.199l10.867,3.023L159.377,195.328z"/>
	<path style="fill:#00BBBB;" d="M107.831,294.822c-1.106-6.555-1.118-13.266-0.02-19.851c-2.483,14.879,0.692,30.399,9.361,43.306
		c-0.382-0.568-0.753-1.142-1.113-1.72C111.859,309.818,109.113,302.425,107.831,294.822z"/>
	<path style="fill:#00BBBB;" d="M107.907,274.371c0.043-0.241,0.095-0.482,0.14-0.723
		C108.001,273.889,107.95,274.129,107.907,274.371z"/>
	<path style="fill:#00BBBB;" d="M108.29,272.402c0.012-0.059,0.028-0.117,0.04-0.176
		C108.318,272.285,108.302,272.344,108.29,272.402z"/>
	<polygon style="fill:#FFEDB9;" points="122.991,326.944 122.992,326.945 117.172,318.277 	"/>
	<path style="fill:#FFEDB9;" d="M111.961,260.925c0.535-1.23,1.114-2.446,1.736-3.648
		C113.075,258.479,112.496,259.695,111.961,260.925z"/>
	<polygon style="fill:#FFEDB9;" points="113.719,257.233 113.718,257.234 125.977,233.59 	"/>
	<path style="fill:#FFEDB9;" d="M378.922,131.604l-15.901,4.383L362.976,136c-0.325,1.676-1.147,3.262-2.486,4.462
		c-0.192,0.172-0.394,0.336-0.607,0.491c-1.422,1.035-3.07,1.535-4.703,1.535c-2.469,0-4.906-1.141-6.469-3.285L346.375,136H336
		l-10.412,3.47l-0.261,0.087c-0.395,0.468-0.719,0.984-1.233,1.364l-12.453,9.207c-1.376,1.017-3.042,1.566-4.753,1.566h-0.004
		h-17.969c-5.23,4.873-6.447,12.693-2.944,18.924l2.03,3.61l21.523-6.386c2.789,3.172,4.367,7.277,4.391,11.551
		c0.016,4.992-2.094,9.773-5.797,13.117l-6.18,5.582l-36.952,12.354l-7.4,2.474l-6.506-4.307l-20.541-13.599
		c-7.273-4.813-15.664-7.316-24.234-7.316c-2.563,0-5.141,0.227-7.703,0.68l-37.273,6.578l-1.951,0.371l-13.838,2.629l13.901-2.641
		C149.499,221.657,144,250.178,144,280c0,21.739,2.954,42.774,8.373,62.797c-8.571-0.123-16.805-3.276-23.216-8.871
		c3.462,3.036,7.448,5.371,11.741,6.888c5.759,2.034,12.05,2.623,18.314,1.504l8.221-1.467l15.068-22.602
		c5.935-8.902,15.926-14.25,26.625-14.25h93.748c10.697,0,20.687-5.345,26.622-14.245l0.877-1.315
		c3.436-5.152,9.537-7.859,15.663-6.948l34.502,5.129L320,208l14.517,4.839c6.175,2.058,11.575,5.951,15.481,11.158l37.037,49.383
		c2.715,3.619,7.888,4.27,11.413,1.435l22.887-18.405c7.125-5.277,11.328-13.618,11.328-22.485v-0.015v-21.734
		c0-1.285-0.617-2.492-1.656-3.242c-1.047-0.762-2.375-0.965-3.602-0.555l-8.898,2.945c-3.25,1.074-6.688,0.742-9.672-0.945
		c-2.984-1.691-5.047-4.461-5.805-7.809l-3.594-15.977l49.767,15.815l-5.092-19.037c-2.688-10.05-2.524-20.649,0.474-30.611
		l7.524-24.997l0.012-0.039c-1.582-2.983-3.247-5.915-4.949-8.822c-0.331-0.564-0.663-1.128-0.998-1.689
		c-2.238-3.753-4.575-7.438-7.008-11.055c-0.201-0.299-0.403-0.597-0.606-0.896c-6.127-9.022-12.829-17.621-20.102-25.705
		l-0.018,0.034l-19.937,36.5C394.347,123.703,387.281,129.301,378.922,131.604z"/>
	<path style="fill:#FFEDB9;" d="M127.577,332.46c0.317,0.313,0.638,0.622,0.965,0.923
		C128.214,333.083,127.895,332.773,127.577,332.46z"/>
	<path style="fill:#FFEDB9;" d="M124.435,328.932c0.18,0.232,0.37,0.454,0.556,0.681
		C124.805,329.385,124.615,329.164,124.435,328.932z"/>
	<path style="fill:#FFEDB9;" d="M125.975,330.778c0.249,0.281,0.506,0.553,0.763,0.825
		C126.48,331.331,126.224,331.058,125.975,330.778z"/>
	<path style="fill:#FFEDB9;" d="M107.831,294.822c1.282,7.603,4.028,14.996,8.228,21.735
		C111.859,309.818,109.113,302.425,107.831,294.822z"/>
	<path style="fill:#FFD586;" d="M152.373,342.797C146.954,322.774,144,301.739,144,280c0-29.822,5.499-58.343,15.44-84.684
		l-13.901,2.641c-11.898,3.621-20.023,14.641-19.742,27.387l0.18,8.246l-12.258,23.644v0c-0.007,0.014-0.014,0.029-0.021,0.043
		c-0.622,1.202-1.201,2.418-1.736,3.648c-1.597,3.671-2.804,7.458-3.631,11.302c-0.013,0.059-0.028,0.117-0.04,0.176
		c-0.088,0.414-0.164,0.83-0.243,1.246c-0.046,0.241-0.098,0.481-0.14,0.723c-0.035,0.2-0.063,0.4-0.096,0.6
		c-1.098,6.585-1.085,13.296,0.02,19.851c1.282,7.603,4.028,14.996,8.228,21.735c0.36,0.578,0.731,1.152,1.113,1.72l5.82,8.667l0,0
		c0.459,0.684,0.943,1.343,1.443,1.987c0.18,0.232,0.37,0.454,0.556,0.681c0.322,0.395,0.647,0.786,0.984,1.165
		c0.25,0.28,0.505,0.553,0.763,0.825c0.276,0.291,0.555,0.577,0.84,0.858c0.318,0.313,0.637,0.623,0.965,0.923
		c0.202,0.185,0.409,0.363,0.614,0.543C135.568,339.521,143.802,342.674,152.373,342.797z"/>
</g>
<g>
</g>
<g>
</g>
<g>
</g>
<g>
</g>
<g>
</g>
<g>
</g>
<g>
</g>
<g>
</g>
<g>
</g>
<g>
</g>
<g>
</g>
<g>
</g>
<g>
</g>
<g>
</g>
<g>
</g>
</svg>
