<?xml version="1.0" encoding="iso-8859-1"?>
<!-- Generator: Adobe Illustrator 16.0.0, SVG Export Plug-In . SVG Version: 6.00 Build 0)  -->
<!DOCTYPE svg PUBLIC "-//W3C//DTD SVG 1.1//EN" "http://www.w3.org/Graphics/SVG/1.1/DTD/svg11.dtd">
<svg xmlns="http://www.w3.org/2000/svg" xmlns:xlink="http://www.w3.org/1999/xlink" version="1.1" id="Capa_1" x="0px" y="0px" width="512px" height="512px" viewBox="0 0 106.059 106.059" style="enable-background:new 0 0 106.059 106.059;" xml:space="preserve">
<g>
	<path d="M15.515,15.511C-5.173,36.198-5.171,69.858,15.517,90.545c20.682,20.686,54.341,20.686,75.027-0.004   c20.687-20.684,20.685-54.341,0.002-75.024C69.858-5.172,36.199-5.172,15.515,15.511z M84.757,84.756   c-17.494,17.494-45.96,17.496-63.455,0.003c-17.498-17.497-17.496-45.966,0-63.46C38.796,3.806,67.261,3.804,84.759,21.301   C102.253,38.795,102.251,67.263,84.757,84.756z M74.907,60.117c-0.804,0-1.706,0.132-2.751,0.415   c-6.28,2.714-12.8,4.09-19.381,4.09c-11.178,0-18.758-4.03-18.833-4.07c-0.035-0.019-0.072-0.032-0.109-0.044   c-0.847-0.226-1.82-0.364-2.669-0.384v0.005c-0.032-0.006-0.064-0.009-0.096-0.009c-0.008,0-0.092-0.003-0.101-0.003   c-0.047,0-0.093,0.008-0.138,0.021c-1.547,0.073-2.743,0.658-3.555,1.738c-2.098,2.789-0.815,7.896-0.751,8.144   C31.342,84.821,47.181,85.97,51.921,85.97c0.672,0,1.077-0.023,1.081-0.027c0.058,0.004,0.462,0.027,1.134,0.027   c4.74,0,20.579-1.149,25.407-15.98c0.057-0.219,1.364-5.4-0.789-8.18C77.885,60.686,76.591,60.117,74.907,60.117z M74.821,69.03   c-3.869,11.676-16.842,12.583-20.727,12.583c-0.519,0-0.824-0.019-0.833-0.019c-0.076-0.006-0.153-0.009-0.231-0.009   c-0.077,0-0.153,0.003-0.222,0.008c-0.044,0.002-0.347,0.02-0.846,0.02c-3.884,0-16.856-0.907-20.712-12.54   c-0.369-1.54-0.41-3.829,0.088-4.468c0.067-0.086,0.338-0.122,0.546-0.127c0.326,0.007,0.871,0.054,1.361,0.163   c2.055,1.014,9.283,4.168,19.538,4.168c6.786,0,13.503-1.399,19.888-4.136c0.538-0.132,1.01-0.199,1.403-0.199   c0.263,0,0.569,0.033,0.643,0.129C75.219,65.246,75.178,67.532,74.821,69.03z M33.24,38.67c0-3.424,2.777-6.201,6.201-6.201   c3.423,0,6.2,2.777,6.2,6.201c0,3.426-2.777,6.203-6.2,6.203C36.017,44.873,33.24,42.095,33.24,38.67z M61.357,38.67   c0-3.424,2.779-6.201,6.203-6.201c3.423,0,6.2,2.777,6.2,6.201c0,3.426-2.776,6.203-6.2,6.203S61.357,42.095,61.357,38.67z" fill="#7a7a7a"/>
</g>
<g>
</g>
<g>
</g>
<g>
</g>
<g>
</g>
<g>
</g>
<g>
</g>
<g>
</g>
<g>
</g>
<g>
</g>
<g>
</g>
<g>
</g>
<g>
</g>
<g>
</g>
<g>
</g>
<g>
</g>
</svg>
