<?xml version="1.0" encoding="iso-8859-1"?>
<!-- Generator: Adobe Illustrator 19.0.0, SVG Export Plug-In . SVG Version: 6.00 Build 0)  -->
<svg version="1.1" id="Capa_1" xmlns="http://www.w3.org/2000/svg" xmlns:xlink="http://www.w3.org/1999/xlink" x="0px" y="0px"
	 viewBox="0 0 512.035 512.035" style="enable-background:new 0 0 512.035 512.035;" xml:space="preserve">
<path style="fill:#2196F3;" d="M488.502,256.035l22.464-58.592c2.464-6.464,0.544-13.792-4.864-18.176l-48.704-39.488l-9.856-61.984
	c-1.088-6.848-6.464-12.192-13.312-13.28l-61.984-9.856L332.79,5.923c-4.352-5.408-11.84-7.328-18.144-4.864l-58.624,22.496
	L197.43,1.091c-6.496-2.496-13.76-0.512-18.144,4.864l-39.488,48.736l-61.984,9.856c-6.816,1.088-12.192,6.464-13.28,13.28
	l-9.856,61.984L5.942,179.299c-5.376,4.352-7.328,11.68-4.864,18.144l22.464,58.592L1.078,314.627
	c-2.496,6.464-0.512,13.792,4.864,18.144l48.736,39.456l9.856,61.984c1.088,6.848,6.432,12.224,13.28,13.312l61.984,9.856
	l39.488,48.704c4.384,5.44,11.712,7.36,18.176,4.864l58.56-22.432l58.592,22.464c1.856,0.704,3.776,1.056,5.728,1.056
	c4.704,0,9.344-2.08,12.448-5.952l39.456-48.704l61.984-9.856c6.848-1.088,12.224-6.464,13.312-13.312l9.856-61.984l48.704-39.456
	c5.408-4.384,7.328-11.68,4.864-18.144L488.502,256.035z"/>
<path style="fill:#FAFAFA;" d="M352.022,208.035h-40c-13.248,0-24-10.752-24-24v-32c0-22.048-17.952-40-40-40
	c-13.248,0-24,10.752-24,24v22.272c0,10.144-2.752,20.096-7.968,28.8l-5.568,9.28c-4.32,7.168-12.192,11.648-20.576,11.648h-5.888
	c-4.416,0-8,3.584-8,8v104c0,2.816,1.472,5.408,3.872,6.848l30.496,18.304c7.456,4.48,16,6.848,24.704,6.848h98.976
	c8.416,0,16.672-3.424,22.624-9.376l17.952-17.952c5.952-5.952,9.376-14.176,9.376-22.624v-62.048
	C384.022,222.371,369.654,208.035,352.022,208.035z"/>
<path style="fill:#455A64;" d="M184.022,208.035h-48c-4.416,0-8,3.584-8,8v128c0,4.416,3.584,8,8,8h48c4.416,0,8-3.584,8-8v-128
	C192.022,211.619,188.438,208.035,184.022,208.035z"/>
<g>
</g>
<g>
</g>
<g>
</g>
<g>
</g>
<g>
</g>
<g>
</g>
<g>
</g>
<g>
</g>
<g>
</g>
<g>
</g>
<g>
</g>
<g>
</g>
<g>
</g>
<g>
</g>
<g>
</g>
</svg>
