<?xml version="1.0" encoding="iso-8859-1"?>
<!-- Generator: Adobe Illustrator 19.0.0, SVG Export Plug-In . SVG Version: 6.00 Build 0)  -->
<svg version="1.1" id="Capa_1" xmlns="http://www.w3.org/2000/svg" xmlns:xlink="http://www.w3.org/1999/xlink" x="0px" y="0px"
	 viewBox="0 0 512 512" style="enable-background:new 0 0 512 512;" xml:space="preserve">
<g transform="matrix(1.25 0 0 -1.25 0 45)">
	<g>
		<g>
			<path style="fill:#FFCC4D;" d="M409.6-168.8c0-113.106-91.694-204.8-204.8-204.8C91.705-373.6,0-281.906,0-168.8
				C0-55.705,91.705,36,204.8,36C317.906,36,409.6-55.705,409.6-168.8"/>
			<path id="SVGCleanerId_0" style="fill:#664500;" d="M159.289-128.978c0-22.005-12.732-39.822-28.444-39.822
				S102.4-150.982,102.4-128.978c0,21.993,12.732,39.822,28.444,39.822S159.289-106.985,159.289-128.978"/>
			<g transform="translate(13)">
				<path id="SVGCleanerId_0_1_" style="fill:#664500;" d="M307.2-128.978c0-22.005-12.732-39.822-28.444-39.822
					s-28.444,17.818-28.444,39.822c0,21.993,12.732,39.822,28.444,39.822S307.2-106.985,307.2-128.978"/>
			</g>
			<path style="fill:#664500;" d="M98.588-281.11c2.025-1.832,5.052-1.946,7.225-0.33c0.444,0.33,44.624,32.996,98.987,32.996
				c54.226,0,98.554-32.666,98.987-32.996c2.173-1.616,5.2-1.479,7.225,0.33c2.014,1.82,2.469,4.824,1.07,7.145
				c-1.468,2.446-36.602,59.654-107.281,59.654S98.975-271.519,97.519-273.965C96.119-276.297,96.563-279.29,98.588-281.11"/>
		</g>
	</g>
</g>
<g>
</g>
<g>
</g>
<g>
</g>
<g>
</g>
<g>
</g>
<g>
</g>
<g>
</g>
<g>
</g>
<g>
</g>
<g>
</g>
<g>
</g>
<g>
</g>
<g>
</g>
<g>
</g>
<g>
</g>
</svg>
