<?xml version="1.0" encoding="iso-8859-1"?>
<!-- Generator: Adobe Illustrator 16.0.0, SVG Export Plug-In . SVG Version: 6.00 Build 0)  -->
<!DOCTYPE svg PUBLIC "-//W3C//DTD SVG 1.1//EN" "http://www.w3.org/Graphics/SVG/1.1/DTD/svg11.dtd">
<svg xmlns="http://www.w3.org/2000/svg" xmlns:xlink="http://www.w3.org/1999/xlink" version="1.1" id="Capa_1" x="0px" y="0px" width="512px" height="512px" viewBox="0 0 106.059 106.059" style="enable-background:new 0 0 106.059 106.059;" xml:space="preserve">
<g>
	<path d="M15.516,15.512C-5.172,36.198-5.17,69.858,15.518,90.547c20.682,20.684,54.34,20.684,75.026-0.004   c20.687-20.685,20.685-54.342,0.002-75.024C69.858-5.172,36.2-5.172,15.516,15.512z M84.757,84.758   c-17.493,17.494-45.961,17.496-63.455,0.002c-17.498-17.497-17.495-45.966,0-63.46C38.796,3.806,67.262,3.804,84.759,21.301   C102.253,38.795,102.251,67.265,84.757,84.758z M39.441,45.873c-2.258,0-4.09-2.777-4.09-6.203c0-3.423,1.832-6.201,4.09-6.201   c2.258,0,4.09,2.777,4.09,6.201C43.531,43.096,41.699,45.873,39.441,45.873z M34.744,32.895c-0.21,1.217-1.267,2.076-2.461,2.076   c-0.141,0-0.284-0.012-0.428-0.037c-1.36-0.235-2.273-1.528-2.039-2.889c0.506-2.931,3.173-8.333,9.83-7.786   c1.376,0.113,2.399,1.32,2.286,2.696c-0.112,1.376-1.301,2.4-2.696,2.287C35.54,28.93,34.814,32.488,34.744,32.895z M71.649,39.67   c0,3.426-1.832,6.203-4.091,6.203c-2.258,0-4.09-2.777-4.09-6.203c0-3.423,1.832-6.201,4.09-6.201   C69.817,33.469,71.649,36.246,71.649,39.67z M77.183,32.044c0.234,1.361-0.679,2.654-2.038,2.889   C75,34.957,74.858,34.97,74.716,34.97c-1.193,0-2.251-0.859-2.461-2.076c-0.07-0.406-0.796-3.963-4.492-3.652   c-1.396,0.113-2.584-0.911-2.695-2.287c-0.113-1.376,0.91-2.583,2.286-2.696C74.01,23.712,76.677,29.113,77.183,32.044z    M65.863,71.17c0,8.183-5.755,14.84-12.833,14.84s-12.833-6.657-12.833-14.84c0-8.182,5.755-14.835,12.833-14.835   S65.863,62.988,65.863,71.17z" fill="#7a7a7a"/>
</g>
<g>
</g>
<g>
</g>
<g>
</g>
<g>
</g>
<g>
</g>
<g>
</g>
<g>
</g>
<g>
</g>
<g>
</g>
<g>
</g>
<g>
</g>
<g>
</g>
<g>
</g>
<g>
</g>
<g>
</g>
</svg>
