<?xml version="1.0" encoding="iso-8859-1"?>
<!-- Generator: Adobe Illustrator 19.0.0, SVG Export Plug-In . SVG Version: 6.00 Build 0)  -->
<svg version="1.1" id="Capa_1" xmlns="http://www.w3.org/2000/svg" xmlns:xlink="http://www.w3.org/1999/xlink" x="0px" y="0px"
	 viewBox="0 0 512 512" style="enable-background:new 0 0 512 512;" xml:space="preserve">
<g transform="matrix(1.25 0 0 -1.25 0 45)">
	<g>
		<g>
			<path style="fill:#FFCC4D;" d="M409.6-168.8c0-113.106-91.694-204.8-204.8-204.8S0-281.906,0-168.8S91.694,36,204.8,36
				S409.6-55.694,409.6-168.8"/>
			<path style="fill:#664500;" d="M250.311-248.444c0-31.437-20.389-56.889-45.511-56.889c-25.145,0-45.511,25.452-45.511,56.889
				c0,31.414,20.366,56.889,45.511,56.889C229.922-191.556,250.311-217.03,250.311-248.444"/>
			<path id="SVGCleanerId_0" style="fill:#664500;" d="M164.978-117.6c0-22.005-12.732-39.822-28.444-39.822
				s-28.444,17.818-28.444,39.822c0,21.993,12.732,39.822,28.444,39.822S164.978-95.607,164.978-117.6"/>
			<g transform="translate(12)">
				<path id="SVGCleanerId_0_1_" style="fill:#664500;" d="M301.511-117.6c0-22.005-12.732-39.822-28.444-39.822
					s-28.444,17.818-28.444,39.822c0,21.993,12.732,39.822,28.444,39.822S301.511-95.607,301.511-117.6"/>
			</g>
		</g>
	</g>
</g>
<g>
</g>
<g>
</g>
<g>
</g>
<g>
</g>
<g>
</g>
<g>
</g>
<g>
</g>
<g>
</g>
<g>
</g>
<g>
</g>
<g>
</g>
<g>
</g>
<g>
</g>
<g>
</g>
<g>
</g>
</svg>
