<?xml version="1.0" encoding="iso-8859-1"?>
<!-- Generator: Adobe Illustrator 19.0.0, SVG Export Plug-In . SVG Version: 6.00 Build 0)  -->
<svg xmlns="http://www.w3.org/2000/svg" xmlns:xlink="http://www.w3.org/1999/xlink" version="1.1" id="Layer_1" x="0px" y="0px" viewBox="0 0 512 512" style="enable-background:new 0 0 512 512;" xml:space="preserve" width="512px" height="512px">
<g>
	<g>
		<path d="M158.014,8.882c-23.171,0-44.411,9.112-59.807,25.656c-16.028,17.221-24.498,40.729-24.498,67.984    c0,28.607,9.416,57.55,25.831,79.404c7.405,9.86,6.871,23.561-1.271,32.579c-9.202,10.194-21.221,16.927-34.754,19.473    C26.713,240.896,0,273.003,0,310.32v52.906h95.926v-15.673H15.673V310.32c0-29.783,21.339-55.411,50.738-60.938    c16.933-3.184,31.973-11.612,43.493-24.373c13.155-14.574,14.068-36.651,2.168-52.496c-14.208-18.915-22.69-45.079-22.69-69.991    c0-23.222,7.019-43.037,20.297-57.306c12.399-13.322,29.564-20.66,48.427-20.66c25.39,0,46.824,12.913,58.805,35.426l13.837-7.363    C216.174,25.231,189.017,8.882,158.014,8.882z" fill="#b0b0b0"/>
	</g>
</g>
<g>
	<g>
		<rect x="218.63" y="411.899" width="102.58" height="15.673" fill="#b0b0b0"/>
	</g>
</g>
<g>
	<g>
		<path d="M370.445,298.326c-13.538-2.55-25.555-9.283-34.753-19.474c-8.147-9.024-8.684-22.727-1.278-32.582    c16.419-21.845,25.835-50.787,25.835-79.405c0-27.254-8.471-50.762-24.498-67.984c-15.398-16.546-36.636-25.659-59.898-25.659    c-23.172,0-44.412,9.112-59.808,25.657c-16.023,17.221-24.493,40.729-24.493,67.984c0,28.612,9.412,57.553,25.824,79.405    c7.41,9.86,6.878,23.563-1.266,32.583c-9.094,10.075-20.946,16.772-34.302,19.386l-0.458,0.086    c-36.803,6.913-63.515,39.021-63.515,76.344v52.905h48.035v-15.673h-32.362v-37.232c0-29.615,21.086-55.116,50.218-60.84    l0.533-0.1c16.937-3.192,31.975-11.62,43.486-24.373c13.161-14.576,14.071-36.657,2.164-52.501    c-14.203-18.91-22.682-45.074-22.682-69.99c0-23.222,7.019-43.038,20.295-57.306c12.398-13.323,29.563-20.661,48.428-20.661    c18.767,0,35.931,7.337,48.33,20.662c13.28,14.27,20.299,34.086,20.299,57.306c0,24.921-8.482,51.084-22.691,69.988    c-11.905,15.841-10.99,37.921,2.172,52.501c11.515,12.756,26.552,21.184,43.491,24.374c8.198,1.541,15.858,4.629,22.765,9.179    l8.622-13.088C390.285,304.12,380.697,300.252,370.445,298.326z" fill="#b0b0b0"/>
	</g>
</g>
<g>
	<g>
		<path d="M423.059,325.378c-49.043,0-88.942,39.867-88.942,88.871c0,49.003,39.899,88.87,88.942,88.87S512,463.25,512,414.248    C512,365.245,472.101,325.378,423.059,325.378z M423.059,487.445c-40.4,0-73.268-32.836-73.268-73.196    s32.868-73.197,73.268-73.197c40.4,0,73.267,32.836,73.267,73.197C496.327,454.609,463.459,487.445,423.059,487.445z" fill="#b0b0b0"/>
	</g>
</g>
<g>
	<g>
		<polygon points="430.896,406.411 430.896,375.883 415.223,375.883 415.223,406.411 384.66,406.411 384.66,422.086     415.223,422.086 415.223,452.612 430.896,452.612 430.896,422.086 461.457,422.086 461.457,406.411   " fill="#b0b0b0"/>
	</g>
</g>
<g>
	<g>
		<rect x="184.15" y="411.899" width="15.673" height="15.673" fill="#b0b0b0"/>
	</g>
</g>
<g>
</g>
<g>
</g>
<g>
</g>
<g>
</g>
<g>
</g>
<g>
</g>
<g>
</g>
<g>
</g>
<g>
</g>
<g>
</g>
<g>
</g>
<g>
</g>
<g>
</g>
<g>
</g>
<g>
</g>
</svg>
