<?xml version="1.0" encoding="iso-8859-1"?>
<!-- Generator: Adobe Illustrator 19.0.0, SVG Export Plug-In . SVG Version: 6.00 Build 0)  -->
<svg xmlns="http://www.w3.org/2000/svg" xmlns:xlink="http://www.w3.org/1999/xlink" version="1.1" id="Layer_1" x="0px" y="0px" viewBox="0 0 480 480" style="enable-background:new 0 0 480 480;" xml:space="preserve" width="512px" height="512px">
<g>
	<g>
		<path d="M400,0H112C92.432,0,76.168,14.144,72.736,32.736C54.144,36.168,40,52.432,40,72v368c0,22.056,17.944,40,40,40h288    c19.568,0,35.832-14.144,39.264-32.736C425.856,443.832,440,427.568,440,408V40C440,17.944,422.056,0,400,0z M392,440    c0,13.232-10.768,24-24,24H80c-13.232,0-24-10.768-24-24V72c0-13.232,10.768-24,24-24h240v64c0,4.424,3.576,8,8,8h64V440z     M336,104V59.312L380.688,104H336z M424,408c0,10.416-6.712,19.216-16,22.528V112c0-2.216-0.904-4.216-2.352-5.664L333.672,34.36    C332.216,32.904,330.216,32,328,32H89.472c3.312-9.288,12.112-16,22.528-16h288c13.232,0,24,10.768,24,24V408z" fill="#91DC5A"/>
	</g>
</g>
<g>
	<g>
		<path d="M224,72c-22.056,0-40,17.944-40,40c0,22.056,17.944,40,40,40c22.056,0,40-17.944,40-40C264,89.944,246.056,72,224,72z     M224,136c-13.232,0-24-10.768-24-24s10.768-24,24-24s24,10.768,24,24S237.232,136,224,136z" fill="#91DC5A"/>
	</g>
</g>
<g>
	<g>
		<rect x="80" y="176" width="80" height="16" fill="#91DC5A"/>
	</g>
</g>
<g>
	<g>
		<rect x="184" y="176" width="24" height="16" fill="#91DC5A"/>
	</g>
</g>
<g>
	<g>
		<rect x="240" y="176" width="80" height="16" fill="#91DC5A"/>
	</g>
</g>
<g>
	<g>
		<rect x="344" y="176" width="24" height="16" fill="#91DC5A"/>
	</g>
</g>
<g>
	<g>
		<rect x="80" y="208" width="80" height="16" fill="#91DC5A"/>
	</g>
</g>
<g>
	<g>
		<rect x="184" y="208" width="24" height="16" fill="#91DC5A"/>
	</g>
</g>
<g>
	<g>
		<rect x="240" y="208" width="80" height="16" fill="#91DC5A"/>
	</g>
</g>
<g>
	<g>
		<rect x="344" y="208" width="24" height="16" fill="#91DC5A"/>
	</g>
</g>
<g>
	<g>
		<rect x="80" y="240" width="80" height="16" fill="#91DC5A"/>
	</g>
</g>
<g>
	<g>
		<rect x="184" y="240" width="24" height="16" fill="#91DC5A"/>
	</g>
</g>
<g>
	<g>
		<rect x="240" y="240" width="80" height="16" fill="#91DC5A"/>
	</g>
</g>
<g>
	<g>
		<rect x="344" y="240" width="24" height="16" fill="#91DC5A"/>
	</g>
</g>
<g>
	<g>
		<rect x="80" y="272" width="80" height="16" fill="#91DC5A"/>
	</g>
</g>
<g>
	<g>
		<rect x="184" y="272" width="24" height="16" fill="#91DC5A"/>
	</g>
</g>
<g>
	<g>
		<rect x="240" y="272" width="80" height="16" fill="#91DC5A"/>
	</g>
</g>
<g>
	<g>
		<rect x="344" y="272" width="24" height="16" fill="#91DC5A"/>
	</g>
</g>
<g>
	<g>
		<rect x="80" y="320" width="80" height="16" fill="#91DC5A"/>
	</g>
</g>
<g>
	<g>
		<rect x="184" y="320" width="24" height="16" fill="#91DC5A"/>
	</g>
</g>
<g>
	<g>
		<rect x="240" y="320" width="80" height="16" fill="#91DC5A"/>
	</g>
</g>
<g>
	<g>
		<rect x="344" y="320" width="24" height="16" fill="#91DC5A"/>
	</g>
</g>
<g>
	<g>
		<rect x="80" y="352" width="80" height="16" fill="#91DC5A"/>
	</g>
</g>
<g>
	<g>
		<rect x="184" y="352" width="24" height="16" fill="#91DC5A"/>
	</g>
</g>
<g>
	<g>
		<rect x="240" y="352" width="80" height="16" fill="#91DC5A"/>
	</g>
</g>
<g>
	<g>
		<rect x="344" y="352" width="24" height="16" fill="#91DC5A"/>
	</g>
</g>
<g>
	<g>
		<rect x="80" y="384" width="80" height="16" fill="#91DC5A"/>
	</g>
</g>
<g>
	<g>
		<rect x="184" y="384" width="24" height="16" fill="#91DC5A"/>
	</g>
</g>
<g>
	<g>
		<rect x="240" y="384" width="80" height="16" fill="#91DC5A"/>
	</g>
</g>
<g>
	<g>
		<rect x="344" y="384" width="24" height="16" fill="#91DC5A"/>
	</g>
</g>
<g>
	<g>
		<rect x="80" y="416" width="80" height="16" fill="#91DC5A"/>
	</g>
</g>
<g>
	<g>
		<rect x="184" y="416" width="24" height="16" fill="#91DC5A"/>
	</g>
</g>
<g>
	<g>
		<rect x="240" y="416" width="80" height="16" fill="#91DC5A"/>
	</g>
</g>
<g>
	<g>
		<rect x="344" y="416" width="24" height="16" fill="#91DC5A"/>
	</g>
</g>
<g>
</g>
<g>
</g>
<g>
</g>
<g>
</g>
<g>
</g>
<g>
</g>
<g>
</g>
<g>
</g>
<g>
</g>
<g>
</g>
<g>
</g>
<g>
</g>
<g>
</g>
<g>
</g>
<g>
</g>
</svg>
