<?xml version="1.0" encoding="iso-8859-1"?>
<!-- Generator: Adobe Illustrator 16.0.0, SVG Export Plug-In . SVG Version: 6.00 Build 0)  -->
<!DOCTYPE svg PUBLIC "-//W3C//DTD SVG 1.1//EN" "http://www.w3.org/Graphics/SVG/1.1/DTD/svg11.dtd">
<svg xmlns="http://www.w3.org/2000/svg" xmlns:xlink="http://www.w3.org/1999/xlink" version="1.1" id="Capa_1" x="0px" y="0px" width="512px" height="512px" viewBox="0 0 621.699 621.699" style="enable-background:new 0 0 621.699 621.699;" xml:space="preserve">
<g>
	<path d="M527.76,101.242C478.838,37.84,397.791,0,310.867,0C223.909,0,142.86,37.863,93.961,101.299   C36.666,160.289,5.022,238.515,4.873,321.718c0.138,66.892,20.654,130.673,59.347,184.548   c17.428,60.026,71.661,102.371,133.818,105.066c3.167,6.22,9.63,10.344,16.956,10.344c1.025,0,1.97-0.104,3.167-0.265l51.594-8.962   c9.135-1.602,15.747-9.469,15.747-18.719c0-1.037-0.092-2.027-0.265-3.236l-47.251-272.06c-1.659-9.065-9.515-15.666-18.742-15.689   c-1.325,0-2.523,0.127-3.698,0.369l-51.11,8.882c-9.135,1.624-15.747,9.457-15.724,18.43c0,0.115,0,0.242-0.023,0.369   c-32.714,13.512-59.266,38.428-74.897,69.726c-8.075-25.458-12.164-51.859-12.164-78.814c0-51.237,14.675-100.562,42.482-142.86   c18.361-5.99,31.274-16.127,39.015-23.81l0.323-0.323l0.299-0.369c36.608-43.968,99.053-70.197,167.097-70.197   c64.553-0.012,125.19,24.132,162.189,64.587l0.646,0.714c1.037,1.117,1.9,2.108,3.029,3.398c6.521,6.9,20.273,19.064,40.801,25.872   c27.854,42.356,42.575,91.704,42.575,142.999c0,26.989-4.09,53.414-12.176,78.849c-15.632-31.32-42.184-56.248-74.943-69.76v-0.069   c0-9.272-6.612-17.141-15.735-18.73l-51.353-8.938c-1.06-0.219-2.2-0.311-3.467-0.311c-9.238,0.023-17.095,6.658-18.719,15.781   l-47.229,271.76c-0.207,1.06-0.312,2.188-0.312,3.433c0,9.25,6.612,17.117,15.747,18.742l51.698,8.973   c1.014,0.162,2.004,0.254,3.109,0.254c5.668,0,10.816-2.488,14.354-6.52l2.695,0.472l0.76-4.354   c61.731-3.029,115.561-45.224,132.932-104.881c38.738-53.956,59.266-117.749,59.381-184.71   C616.723,238.492,585.08,160.231,527.76,101.242z M214.659,328.307l45.316,260.781l-40.363,7.027l-45.316-260.782L214.659,328.307z    M402.122,596.115l-40.363-7.027l45.316-260.77l40.386,7.015l-0.253,1.371L402.122,596.115z" fill="#FFFFFF"/>
</g>
<g>
</g>
<g>
</g>
<g>
</g>
<g>
</g>
<g>
</g>
<g>
</g>
<g>
</g>
<g>
</g>
<g>
</g>
<g>
</g>
<g>
</g>
<g>
</g>
<g>
</g>
<g>
</g>
<g>
</g>
</svg>
